<?xml version="1.0" encoding="UTF-8"?>
<svg width="1000px" height="558px" viewBox="0 0 1000 558" version="1.1" xmlns="http://www.w3.org/2000/svg" xmlns:xlink="http://www.w3.org/1999/xlink">
    <!-- Generator: Sketch 60 (88103) - https://sketch.com -->
    <title>hid-header__ui-shell</title>
    <desc>Created with Sketch.</desc>
    <g id="Image-Assets" stroke="none" stroke-width="1" fill="none" fill-rule="evenodd">
        <g id="header-images" transform="translate(-49.000000, -297.000000)">
            <g id="hid-header__ui-shell" transform="translate(49.000000, 297.000000)">
                <g id="hid-notification">
                    <g id="browser">
                        <rect id="Background" stroke="#DDDDDD" fill="#FFFFFF" x="0.5" y="0.5" width="999" height="557" rx="4"></rect>
                        <rect id="Background" stroke="#DDDDDD" fill="#FFFFFF" x="178.5" y="103.5" width="614" height="416" rx="4"></rect>
                        <rect id="Background" stroke="#DDDDDD" fill="#FFFFFF" x="812.5" y="296.5" width="174" height="223" rx="4"></rect>
                        <rect id="Background" stroke="#DDDDDD" fill="#FFFFFF" x="812.5" y="103.5" width="174" height="175" rx="4"></rect>
                        <path d="M0.5,21.5 L999.5,21.5 L999.5,4 C999.5,2.06700338 997.932997,0.5 996,0.5 L4,0.5 C2.06700338,0.5 0.5,2.06700338 0.5,4 L0.5,21.5 Z" id="Background" stroke="#DDDDDD" fill="#FFFFFF"></path>
                        <rect id="Background" stroke="#DDDDDD" fill="#FFFFFF" x="0.5" y="21.5" width="999" height="37"></rect>
                        <rect id="Background" stroke="#DDDDDD" fill="#FFFFFF" x="0.5" y="531.5" width="999" height="14"></rect>
                        <rect id="Background" stroke="#DDDDDD" fill="#FFFFFF" x="14.5" y="33.5" width="13" height="13"></rect>
                        <rect id="Background" stroke="#DDDDDD" fill="#FFFFFF" x="973.5" y="33.5" width="13" height="13"></rect>
                        <rect id="Background" stroke="#DDDDDD" fill="#FFFFFF" x="951.5" y="33.5" width="13" height="13"></rect>
                        <rect id="Background" stroke="#DDDDDD" fill="#FFFFFF" x="926.5" y="33.5" width="13" height="13"></rect>
                        <rect id="Background" stroke="#DDDDDD" fill="#FFFFFF" x="88.5" y="33.5" width="59" height="13"></rect>
                        <rect id="Background" stroke="#DDDDDD" fill="#FFFFFF" x="79.5" y="33.5" width="1" height="13"></rect>
                        <rect id="Background" stroke="#DDDDDD" fill="#FFFFFF" x="40.5" y="31.5" width="29" height="17"></rect>
                        <path d="M0.5,557.5 L999.5,557.5 L999.5,549 C999.5,547.067003 997.932997,545.5 996,545.5 L4,545.5 C2.06700338,545.5 0.5,547.067003 0.5,549 L0.5,557.5 Z" id="Background" stroke="#DDDDDD" fill="#FFFFFF" transform="translate(500.000000, 551.500000) scale(1, -1) translate(-500.000000, -551.500000) "></path>
                        <circle id="Oval" fill="#D31245" cx="11" cy="11" r="5"></circle>
                        <circle id="Oval" fill="#F8971D" cx="27" cy="11" r="5"></circle>
                        <circle id="Oval" fill="#94BB20" cx="43" cy="11" r="5"></circle>
                    </g>
                </g>
                <rect id="Rectangle" stroke="#CCCCCC" stroke-width="2" fill="#E6E6E6" opacity="0.401343936" x="2" y="59" width="159" height="472"></rect>
                <rect id="Rectangle" stroke="#CCCCCC" stroke-width="2" fill="#E6E6E6" opacity="0.395507812" x="2" y="58" width="159" height="35"></rect>
                <rect id="Rectangle" stroke="#DDDDDD" fill="#333333" opacity="0.263462612" x="13.5" y="106.5" width="13" height="13"></rect>
                <rect id="Rectangle" stroke="#DDDDDD" fill="#333333" opacity="0.186988467" x="34.5" y="108.5" width="76" height="9"></rect>
                <rect id="Rectangle" stroke="#DDDDDD" fill="#333333" opacity="0.263462612" x="13.5" y="69.5" width="17" height="17" rx="8.5"></rect>
                <rect id="Rectangle" stroke="#DDDDDD" fill="#333333" opacity="0.186988467" x="42.5" y="73.5" width="76" height="9"></rect>
                <rect id="Rectangle" stroke="#DDDDDD" fill="#333333" opacity="0.186988467" x="173.5" y="71.5" width="215" height="15"></rect>
                <rect id="Rectangle" stroke="#DDDDDD" fill="#333333" opacity="0.186988467" x="34.5" y="130.5" width="76" height="9"></rect>
                <rect id="Rectangle" stroke="#DDDDDD" fill="#333333" opacity="0.0620349702" x="34.5" y="151.5" width="3" height="33"></rect>
                <rect id="Rectangle" stroke="#DDDDDD" fill="#333333" opacity="0.186988467" x="43.5" y="152.5" width="84" height="9"></rect>
                <rect id="Rectangle" stroke="#DDDDDD" fill="#333333" opacity="0.186988467" x="199.5" y="120.5" width="76" height="9"></rect>
                <rect id="Rectangle" stroke="#DDDDDD" fill="#333333" opacity="0.186988467" x="199.5" y="142.5" width="76" height="9"></rect>
                <rect id="Rectangle" stroke="#DDDDDD" fill="#333333" opacity="0.186988467" x="214.5" y="164.5" width="84" height="9"></rect>
                <rect id="Rectangle" stroke="#DDDDDD" fill="#333333" opacity="0.186988467" x="828.5" y="118.5" width="76" height="9"></rect>
                <rect id="Rectangle" stroke="#DDDDDD" fill="#333333" opacity="0.186988467" x="828.5" y="140.5" width="76" height="9"></rect>
                <rect id="Rectangle" stroke="#DDDDDD" fill="#333333" opacity="0.186988467" x="843.5" y="162.5" width="84" height="9"></rect>
                <rect id="Rectangle" stroke="#DDDDDD" fill="#333333" opacity="0.186988467" x="828.5" y="316.5" width="76" height="9"></rect>
                <rect id="Rectangle" stroke="#DDDDDD" fill="#333333" opacity="0.186988467" x="828.5" y="338.5" width="76" height="9"></rect>
                <rect id="Rectangle" stroke="#DDDDDD" fill="#333333" opacity="0.186988467" x="843.5" y="360.5" width="84" height="9"></rect>
                <rect id="Rectangle" stroke="#DDDDDD" fill="#333333" opacity="0.186988467" x="43.5" y="174.5" width="61" height="9"></rect>
                <rect id="Rectangle" stroke="#DDDDDD" fill="#333333" opacity="0.186988467" x="34.5" y="196.5" width="76" height="9"></rect>
                <rect id="Rectangle" stroke="#DDDDDD" fill="#333333" opacity="0.186988467" x="34.5" y="218.5" width="76" height="9"></rect>
                <rect id="Rectangle" stroke="#DDDDDD" fill="#333333" opacity="0.263462612" x="13.5" y="129.5" width="13" height="13"></rect>
                <rect id="Rectangle" stroke="#DDDDDD" fill="#333333" opacity="0.263462612" x="13.5" y="194.5" width="13" height="13"></rect>
                <rect id="Rectangle" stroke="#DDDDDD" fill="#333333" opacity="0.263462612" x="13.5" y="218.5" width="13" height="13"></rect>
            </g>
        </g>
    </g>
</svg>