<?xml version="1.0" encoding="UTF-8"?>
<svg width="226px" height="163px" viewBox="0 0 226 163" version="1.1" xmlns="http://www.w3.org/2000/svg" xmlns:xlink="http://www.w3.org/1999/xlink">
    <!-- Generator: Sketch 57 (83077) - https://sketch.com -->
    <title>hid-radio-button__thumb</title>
    <desc>Created with Sketch.</desc>
    <g id="Component---Accordion" stroke="none" stroke-width="1" fill="none" fill-rule="evenodd">
        <g id="assets" transform="translate(-649.000000, -2093.000000)">
            <g id="hid-radio-button__thumb" transform="translate(649.000000, 2093.000000)">
                <g id="toggle/group__radio-button--off" transform="translate(23.000000, 69.000000)">
                    <g id="group__radio-button--off">
                        <g id="toggle/ic_radio_button_off" opacity="0.542364211">
                            <g id="ic_radio_button_off">
                                <polygon id="Bounds" points="0 0 24 0 24 24 0 24"></polygon>
                                <path d="M12,2 C6.48,2 2,6.48 2,12 C2,17.52 6.48,22 12,22 C17.52,22 22,17.52 22,12 C22,6.48 17.52,2 12,2 L12,2 Z M12,20 C7.58,20 4,16.42 4,12 C4,7.58 7.58,4 12,4 C16.42,4 20,7.58 20,12 C20,16.42 16.42,20 12,20 L12,20 Z" id="Shape" fill="#000000"></path>
                            </g>
                        </g>
                        <text id="option" font-family="Roboto-Regular, Roboto" font-size="14" font-weight="normal" letter-spacing="0.200000003" fill="#555555">
                            <tspan x="36" y="17">Option</tspan>
                        </text>
                    </g>
                </g>
                <rect id="Background" fill="#FFFFFF" opacity="0.01171875" x="0" y="0" width="226" height="163" rx="4"></rect>
                <g id="toggle/group__radio-button--on" transform="translate(126.000000, 69.000000)">
                    <g id="group__radio-button--on">
                        <g id="toggle/ic_radio_button_on">
                            <g id="ic_radio_button_on">
                                <polygon id="Bounds" points="0 0 24 0 24 24 0 24"></polygon>
                                <path d="M12,7 C9.24,7 7,9.24 7,12 C7,14.76 9.24,17 12,17 C14.76,17 17,14.76 17,12 C17,9.24 14.76,7 12,7 L12,7 Z M12,2 C6.48,2 2,6.48 2,12 C2,17.52 6.48,22 12,22 C17.52,22 22,17.52 22,12 C22,6.48 17.52,2 12,2 L12,2 Z M12,20 C7.58,20 4,16.42 4,12 C4,7.58 7.58,4 12,4 C16.42,4 20,7.58 20,12 C20,16.42 16.42,20 12,20 L12,20 Z" id="Shape" fill="#00539B"></path>
                            </g>
                        </g>
                        <text id="option" font-family="Roboto-Regular, Roboto" font-size="14" font-weight="normal" letter-spacing="0.200000003" fill="#555555">
                            <tspan x="36" y="18">Option</tspan>
                        </text>
                    </g>
                </g>
            </g>
        </g>
    </g>
</svg>