<?xml version="1.0" encoding="UTF-8"?>
<svg width="225px" height="138px" viewBox="0 0 225 138" version="1.1" xmlns="http://www.w3.org/2000/svg" xmlns:xlink="http://www.w3.org/1999/xlink">
    <!-- Generator: Sketch 57 (83077) - https://sketch.com -->
    <title>hid-input__thumb</title>
    <desc>Created with Sketch.</desc>
    <g id="Component---Accordion" stroke="none" stroke-width="1" fill="none" fill-rule="evenodd">
        <g id="assets" transform="translate(-650.000000, -1692.000000)">
            <g id="hid-input__thumb" transform="translate(650.000000, 1692.000000)">
                <rect id="background" stroke="#DDDDDD" fill="#FFFFFF" x="0.5" y="6.5" width="224" height="23" rx="4"></rect>
                <rect id="Rectangle" fill="#DDDDDD" x="8.37037037" y="14" width="150" height="8" rx="1"></rect>
                <rect id="Rectangle" fill="#BBBBBB" x="8" y="0" width="60" height="2" rx="1"></rect>
                <rect id="Rectangle" fill="#DDDDDD" x="8" y="34" width="60" height="2" rx="1"></rect>
                <rect id="background" stroke="#DDDDDD" fill="#FFFFFF" x="0.5" y="52.5" width="224" height="78" rx="4"></rect>
                <rect id="Rectangle" fill="#DDDDDD" x="8.37037037" y="60" width="207" height="8" rx="1"></rect>
                <rect id="Rectangle" fill="#DDDDDD" x="8.37037037" y="74" width="207" height="8" rx="1"></rect>
                <rect id="Rectangle" fill="#DDDDDD" x="8.37037037" y="88" width="100" height="8" rx="1"></rect>
                <rect id="Rectangle" fill="#BBBBBB" x="8" y="46" width="60" height="2" rx="1"></rect>
                <rect id="Rectangle" fill="#DDDDDD" x="8" y="135" width="60" height="2" rx="1"></rect>
                <rect id="Rectangle" fill="#DDDDDD" x="197" y="136" width="20" height="2" rx="1"></rect>
            </g>
        </g>
    </g>
</svg>