<?xml version="1.0" encoding="UTF-8"?>
<svg width="226px" height="163px" viewBox="0 0 226 163" version="1.1" xmlns="http://www.w3.org/2000/svg" xmlns:xlink="http://www.w3.org/1999/xlink">
    <!-- Generator: Sketch 57 (83077) - https://sketch.com -->
    <title>hid-breadcrumb__thumb</title>
    <desc>Created with Sketch.</desc>
    <g id="Component---Accordion" stroke="none" stroke-width="1" fill="none" fill-rule="evenodd">
        <g id="assets" transform="translate(-354.000000, -1568.000000)">
            <g id="hid-breadcrumb__thumb" transform="translate(354.000000, 1568.000000)">
                <rect id="Background" fill="#FFFFFF" opacity="0.01171875" x="0" y="0" width="226" height="163" rx="4"></rect>
                <g id="navigation/ic_chevron_right" transform="translate(114.000000, 71.000000)">
                    <g id="ic_chevron_right">
                        <polygon id="Bounds" points="0 0 20 0 20 20 0 20"></polygon>
                        <polygon id="Shape" fill="#555555" points="8.33333333 5 7.15833333 6.175 10.975 10 7.15833333 13.825 8.33333333 15 13.3333333 10"></polygon>
                    </g>
                </g>
                <g id="navigation/ic_more_vert" transform="translate(0.000000, 71.000000)">
                    <g id="ic_more_vert">
                        <polygon id="Bounds" points="0 0 20 0 20 20 0 20"></polygon>
                        <path d="M10,6.66666667 C10.9166667,6.66666667 11.6666667,5.91666667 11.6666667,5 C11.6666667,4.08333333 10.9166667,3.33333333 10,3.33333333 C9.08333333,3.33333333 8.33333333,4.08333333 8.33333333,5 C8.33333333,5.91666667 9.08333333,6.66666667 10,6.66666667 L10,6.66666667 Z M10,8.33333333 C9.08333333,8.33333333 8.33333333,9.08333333 8.33333333,10 C8.33333333,10.9166667 9.08333333,11.6666667 10,11.6666667 C10.9166667,11.6666667 11.6666667,10.9166667 11.6666667,10 C11.6666667,9.08333333 10.9166667,8.33333333 10,8.33333333 L10,8.33333333 Z M10,13.3333333 C9.08333333,13.3333333 8.33333333,14.0833333 8.33333333,15 C8.33333333,15.9166667 9.08333333,16.6666667 10,16.6666667 C10.9166667,16.6666667 11.6666667,15.9166667 11.6666667,15 C11.6666667,14.0833333 10.9166667,13.3333333 10,13.3333333 L10,13.3333333 Z" id="Shape" fill="#555555"></path>
                    </g>
                </g>
                <text id="Breadcrumb-1" opacity="0.873939732" font-family="Roboto-Medium, Roboto" font-size="12" font-weight="400" line-spacing="20" letter-spacing="0.1714286" fill="#00539B">
                    <tspan x="28" y="82">Breadcrumb 3</tspan>
                </text>
                <text id="Breadcrumb-4" opacity="0.869698661" font-family="Roboto-Regular, Roboto" font-size="12" font-weight="normal" line-spacing="20" letter-spacing="0.1714286" fill="#555555">
                    <tspan x="142" y="82">Breadcrumb 4</tspan>
                </text>
            </g>
        </g>
    </g>
</svg>