<?xml version="1.0" encoding="UTF-8"?>
<svg width="1146px" height="572px" viewBox="0 0 1146 572" version="1.1" xmlns="http://www.w3.org/2000/svg" xmlns:xlink="http://www.w3.org/1999/xlink">
    <!-- Generator: Sketch 58 (84663) - https://sketch.com -->
    <title>hid-modal__format</title>
    <desc>Created with Sketch.</desc>
    <defs>
        <linearGradient x1="50%" y1="0%" x2="50%" y2="100%" id="linearGradient-1">
            <stop stop-color="#FFFFFF" stop-opacity="0.8" offset="0%"></stop>
            <stop stop-color="#FFFFFF" stop-opacity="0.4" offset="5%"></stop>
            <stop stop-color="#FFFFFF" stop-opacity="0" offset="20%"></stop>
            <stop stop-color="#FFFFFF" stop-opacity="0" offset="100%"></stop>
        </linearGradient>
        <linearGradient x1="50%" y1="0%" x2="50%" y2="100%" id="linearGradient-2">
            <stop stop-color="#000000" stop-opacity="0" offset="0%"></stop>
            <stop stop-color="#000000" stop-opacity="0" offset="80%"></stop>
            <stop stop-color="#000000" stop-opacity="0.02" offset="95.0255322%"></stop>
            <stop stop-color="#000000" stop-opacity="0.04" offset="100%"></stop>
        </linearGradient>
        <rect id="path-3" x="0" y="0" width="409" height="466" rx="1"></rect>
        <filter x="-20.8%" y="-13.9%" width="141.6%" height="136.5%" filterUnits="objectBoundingBox" id="filter-4">
            <feOffset dx="0" dy="20" in="SourceAlpha" result="shadowOffsetOuter1"></feOffset>
            <feGaussianBlur stdDeviation="25" in="shadowOffsetOuter1" result="shadowBlurOuter1"></feGaussianBlur>
            <feComposite in="shadowBlurOuter1" in2="SourceAlpha" operator="out" result="shadowBlurOuter1"></feComposite>
            <feColorMatrix values="0 0 0 0 0   0 0 0 0 0   0 0 0 0 0  0 0 0 0.24 0" type="matrix" in="shadowBlurOuter1" result="shadowMatrixOuter1"></feColorMatrix>
            <feOffset dx="0" dy="0" in="SourceAlpha" result="shadowOffsetOuter2"></feOffset>
            <feGaussianBlur stdDeviation="1" in="shadowOffsetOuter2" result="shadowBlurOuter2"></feGaussianBlur>
            <feComposite in="shadowBlurOuter2" in2="SourceAlpha" operator="out" result="shadowBlurOuter2"></feComposite>
            <feColorMatrix values="0 0 0 0 0   0 0 0 0 0   0 0 0 0 0  0 0 0 0.12 0" type="matrix" in="shadowBlurOuter2" result="shadowMatrixOuter2"></feColorMatrix>
            <feMerge>
                <feMergeNode in="shadowMatrixOuter1"></feMergeNode>
                <feMergeNode in="shadowMatrixOuter2"></feMergeNode>
            </feMerge>
        </filter>
        <rect id="path-5" x="0" y="0" width="409" height="72" rx="1"></rect>
        <filter x="-0.1%" y="-0.7%" width="100.2%" height="101.4%" filterUnits="objectBoundingBox" id="filter-6">
            <feOffset dx="0" dy="-1" in="SourceAlpha" result="shadowOffsetInner1"></feOffset>
            <feComposite in="shadowOffsetInner1" in2="SourceAlpha" operator="arithmetic" k2="-1" k3="1" result="shadowInnerInner1"></feComposite>
            <feColorMatrix values="0 0 0 0 0.870588235   0 0 0 0 0.870588235   0 0 0 0 0.870588235  0 0 0 1 0" type="matrix" in="shadowInnerInner1"></feColorMatrix>
        </filter>
        <linearGradient x1="50%" y1="0%" x2="50%" y2="100%" id="linearGradient-7">
            <stop stop-color="#FFFFFF" stop-opacity="0.8" offset="0%"></stop>
            <stop stop-color="#FFFFFF" stop-opacity="0.4" offset="5%"></stop>
            <stop stop-color="#FFFFFF" stop-opacity="0" offset="20%"></stop>
            <stop stop-color="#FFFFFF" stop-opacity="0" offset="100%"></stop>
        </linearGradient>
        <linearGradient x1="50%" y1="0%" x2="50%" y2="100%" id="linearGradient-8">
            <stop stop-color="#000000" stop-opacity="0" offset="0%"></stop>
            <stop stop-color="#000000" stop-opacity="0" offset="80%"></stop>
            <stop stop-color="#000000" stop-opacity="0.02" offset="95.0255322%"></stop>
            <stop stop-color="#000000" stop-opacity="0.04" offset="100%"></stop>
        </linearGradient>
        <rect id="path-9" x="0" y="0" width="409" height="255" rx="1"></rect>
        <filter x="-20.8%" y="-25.5%" width="141.6%" height="166.7%" filterUnits="objectBoundingBox" id="filter-10">
            <feOffset dx="0" dy="20" in="SourceAlpha" result="shadowOffsetOuter1"></feOffset>
            <feGaussianBlur stdDeviation="25" in="shadowOffsetOuter1" result="shadowBlurOuter1"></feGaussianBlur>
            <feComposite in="shadowBlurOuter1" in2="SourceAlpha" operator="out" result="shadowBlurOuter1"></feComposite>
            <feColorMatrix values="0 0 0 0 0   0 0 0 0 0   0 0 0 0 0  0 0 0 0.24 0" type="matrix" in="shadowBlurOuter1" result="shadowMatrixOuter1"></feColorMatrix>
            <feOffset dx="0" dy="0" in="SourceAlpha" result="shadowOffsetOuter2"></feOffset>
            <feGaussianBlur stdDeviation="1" in="shadowOffsetOuter2" result="shadowBlurOuter2"></feGaussianBlur>
            <feComposite in="shadowBlurOuter2" in2="SourceAlpha" operator="out" result="shadowBlurOuter2"></feComposite>
            <feColorMatrix values="0 0 0 0 0   0 0 0 0 0   0 0 0 0 0  0 0 0 0.12 0" type="matrix" in="shadowBlurOuter2" result="shadowMatrixOuter2"></feColorMatrix>
            <feMerge>
                <feMergeNode in="shadowMatrixOuter1"></feMergeNode>
                <feMergeNode in="shadowMatrixOuter2"></feMergeNode>
            </feMerge>
        </filter>
    </defs>
    <g id="Image-Assets" stroke="none" stroke-width="1" fill="none" fill-rule="evenodd">
        <g id="modal-images" transform="translate(-4.000000, -34.000000)">
            <g id="hid-modal__format" transform="translate(54.000000, 32.000000)">
                <g id="Requests-Table-2" transform="translate(637.000000, 38.000000)">
                    <g id="Rectangle-16-Copy-3">
                        <use fill="black" fill-opacity="1" filter="url(#filter-4)" xlink:href="#path-3"></use>
                        <rect stroke="url(#linearGradient-1)" stroke-width="0.5" stroke-linejoin="square" fill="#FFFFFF" fill-rule="evenodd" x="0.25" y="0.25" width="408.5" height="465.5" rx="1"></rect>
                        <rect stroke="url(#linearGradient-2)" stroke-width="0.5" stroke-linejoin="square" x="0.25" y="0.25" width="408.5" height="465.5" rx="1"></rect>
                    </g>
                    <g id="hid-input__default" transform="translate(24.000000, 74.000000)">
                        <g id="input">
                            <rect id="input__background" stroke="#DDDDDD" fill="#FFFFFF" x="0" y="20" width="361" height="38" rx="4"></rect>
                            <path d="M2.34960938,7.81640625 L6.22265625,7.81640625 L6.22265625,9 L0.8671875,9 L0.8671875,0.46875 L2.34960938,0.46875 L2.34960938,7.81640625 Z M10.8222656,9 C10.7597653,8.87890564 10.7050784,8.68164199 10.6582031,8.40820312 C10.2050759,8.88086174 9.65039391,9.1171875 8.99414062,9.1171875 C8.35741869,9.1171875 7.83789264,8.93554869 7.43554688,8.57226562 C7.03320111,8.20898256 6.83203125,7.7597683 6.83203125,7.22460938 C6.83203125,6.54882475 7.0830053,6.03027524 7.58496094,5.66894531 C8.08691657,5.30761538 8.80468283,5.12695312 9.73828125,5.12695312 L10.6113281,5.12695312 L10.6113281,4.7109375 C10.6113281,4.38281086 10.5195322,4.12011817 10.3359375,3.92285156 C10.1523428,3.72558495 9.87304875,3.62695312 9.49804688,3.62695312 C9.1738265,3.62695312 8.90820416,3.708007 8.70117188,3.87011719 C8.49413959,4.03222737 8.390625,4.23828 8.390625,4.48828125 L6.96679688,4.48828125 C6.96679688,4.14062326 7.0820301,3.8154312 7.3125,3.51269531 C7.5429699,3.20995942 7.85644333,2.97265711 8.25292969,2.80078125 C8.64941604,2.62890539 9.09179443,2.54296875 9.58007812,2.54296875 C10.3222693,2.54296875 10.9140603,2.72949032 11.3554688,3.10253906 C11.7968772,3.4755878 12.0234374,3.99999662 12.0351562,4.67578125 L12.0351562,7.53515625 C12.0351562,8.1054716 12.1152336,8.56054518 12.2753906,8.90039062 L12.2753906,9 L10.8222656,9 Z M9.2578125,7.97460938 C9.53906391,7.97460938 9.8037097,7.90625068 10.0517578,7.76953125 C10.2998059,7.63281182 10.4863275,7.4492199 10.6113281,7.21875 L10.6113281,6.0234375 L9.84375,6.0234375 C9.31640361,6.0234375 8.9199232,6.11523346 8.65429688,6.29882812 C8.38867055,6.48242279 8.25585938,6.74218582 8.25585938,7.078125 C8.25585938,7.35156387 8.34667878,7.56933513 8.52832031,7.73144531 C8.70996185,7.8935555 8.95312348,7.97460938 9.2578125,7.97460938 Z M18.9023438,5.89453125 C18.9023438,6.87891117 18.6826194,7.66210646 18.2431641,8.24414062 C17.8037087,8.82617479 17.1992226,9.1171875 16.4296875,9.1171875 C15.6874963,9.1171875 15.1093771,8.84961205 14.6953125,8.31445312 L14.625,9 L13.3359375,9 L13.3359375,0 L14.7597656,0 L14.7597656,3.26953125 C15.1699239,2.78515383 15.7226528,2.54296875 16.4179688,2.54296875 C17.1914101,2.54296875 17.7988259,2.83007525 18.2402344,3.40429688 C18.6816428,3.9785185 18.9023438,4.78124484 18.9023438,5.8125 L18.9023438,5.89453125 Z M17.4785156,5.77148438 C17.4785156,5.08398094 17.3574231,4.56836109 17.1152344,4.22460938 C16.8730457,3.88085766 16.5214867,3.70898438 16.0605469,3.70898438 C15.4433563,3.70898438 15.0097669,3.97851293 14.7597656,4.51757812 L14.7597656,7.13085938 C15.0136731,7.68164338 15.4511688,7.95703125 16.0722656,7.95703125 C16.5175804,7.95703125 16.8613269,7.79101729 17.1035156,7.45898438 C17.3457043,7.12695146 17.4707031,6.62500336 17.4785156,5.953125 L17.4785156,5.77148438 Z M22.6992188,9.1171875 C21.7968705,9.1171875 21.0654325,8.83301065 20.5048828,8.26464844 C19.9443331,7.69628622 19.6640625,6.93945785 19.6640625,5.99414062 L19.6640625,5.81835938 C19.6640625,5.18554371 19.7861316,4.62011968 20.0302734,4.12207031 C20.2744153,3.62402095 20.6171853,3.23632951 21.0585938,2.95898438 C21.5000022,2.68163924 21.9921848,2.54296875 22.5351562,2.54296875 C23.3984418,2.54296875 24.0654273,2.81835662 24.5361328,3.36914062 C25.0068383,3.91992463 25.2421875,4.69921371 25.2421875,5.70703125 L25.2421875,6.28125 L21.0996094,6.28125 C21.1425783,6.80469012 21.3173813,7.21874848 21.6240234,7.5234375 C21.9306656,7.82812652 22.3164039,7.98046875 22.78125,7.98046875 C23.433597,7.98046875 23.9648417,7.71679951 24.375,7.18945312 L25.1425781,7.921875 C24.8886706,8.30078314 24.5498068,8.59472552 24.1259766,8.80371094 C23.7021463,9.01269636 23.2265651,9.1171875 22.6992188,9.1171875 Z M22.5292969,3.68554688 C22.1386699,3.68554688 21.8232434,3.82226426 21.5830078,4.09570312 C21.3427722,4.36914199 21.1894535,4.74999756 21.1230469,5.23828125 L23.8359375,5.23828125 L23.8359375,5.1328125 C23.8046873,4.65624762 23.6777355,4.29589966 23.4550781,4.05175781 C23.2324208,3.80761597 22.9238301,3.68554688 22.5292969,3.68554688 Z M27.6738281,9 L26.25,9 L26.25,0 L27.6738281,0 L27.6738281,9 Z" id="label" fill="#555555" fill-rule="nonzero"></path>
                            <path d="M10.4677734,40.1035156 L10.4677734,44 L9.15527344,44 L9.15527344,34.046875 L12.8261719,34.046875 C13.91537,34.046875 14.7687144,34.324867 15.3862305,34.8808594 C16.0037466,35.4368517 16.3125,36.172847 16.3125,37.0888672 C16.3125,38.0550179 16.0105824,38.7989883 15.4067383,39.3208008 C14.8028941,39.8426133 13.9381567,40.1035156 12.8125,40.1035156 L10.4677734,40.1035156 Z M10.4677734,39.0302734 L12.8261719,39.0302734 C13.5279983,39.0302734 14.0657533,38.8650733 14.4394531,38.534668 C14.8131529,38.2042627 15,37.7268911 15,37.1025391 C15,36.5100882 14.8131529,36.0361346 14.4394531,35.6806641 C14.0657533,35.3251935 13.5530632,35.1406251 12.9013672,35.1269531 L10.4677734,35.1269531 L10.4677734,39.0302734 Z M19.3630859,44 L18.0984375,44 L18.0984375,33.5 L19.3630859,33.5 L19.3630859,44 Z M26.1529297,44 C26.0800127,43.8541659 26.0207685,43.5944029 25.9751953,43.2207031 C25.3873018,43.8313833 24.6854859,44.1367188 23.8697266,44.1367188 C23.1405563,44.1367188 22.5424177,43.9305034 22.075293,43.5180664 C21.6081682,43.1056294 21.3746094,42.5826855 21.3746094,41.9492188 C21.3746094,41.1790326 21.6674124,40.5808941 22.2530273,40.1547852 C22.8386423,39.7286763 23.6623645,39.515625 24.7242188,39.515625 L25.9546875,39.515625 L25.9546875,38.9345703 C25.9546875,38.4925108 25.8225274,38.1404635 25.5582031,37.878418 C25.2938789,37.6163724 24.9042344,37.4853516 24.3892578,37.4853516 C23.9380837,37.4853516 23.5598323,37.5992827 23.2544922,37.8271484 C22.9491521,38.0550142 22.7964844,38.3307275 22.7964844,38.6542969 L21.525,38.6542969 C21.525,38.2851544 21.6560208,37.9285499 21.9180664,37.5844727 C22.180112,37.2403954 22.5355772,36.9681 22.9844727,36.7675781 C23.4333681,36.5670563 23.92669,36.4667969 24.4644531,36.4667969 C25.3166709,36.4667969 25.9843075,36.6798481 26.4673828,37.105957 C26.9504582,37.5320659 27.2011067,38.1188114 27.2193359,38.8662109 L27.2193359,42.2705078 C27.2193359,42.9495477 27.3059236,43.4895813 27.4791016,43.890625 L27.4791016,44 L26.1529297,44 Z M24.0542969,43.0361328 C24.4507832,43.0361328 24.826756,42.9335948 25.1822266,42.7285156 C25.5376971,42.5234365 25.7951815,42.2568376 25.9546875,41.9287109 L25.9546875,40.4111328 L24.9634766,40.4111328 C23.4139897,40.4111328 22.6392578,40.8645788 22.6392578,41.7714844 C22.6392578,42.1679707 22.771418,42.4778635 23.0357422,42.7011719 C23.3000664,42.9244803 23.6395813,43.0361328 24.0542969,43.0361328 Z M32.3685547,43.1044922 C32.8197288,43.1044922 33.2139306,42.9677748 33.5511719,42.6943359 C33.8884132,42.4208971 34.0752602,42.0791036 34.1117188,41.6689453 L35.3080078,41.6689453 C35.2852212,42.0927756 35.1393894,42.4960918 34.8705078,42.8789062 C34.6016263,43.2617207 34.2427431,43.5670562 33.7938477,43.7949219 C33.3449522,44.0227876 32.8698593,44.1367188 32.3685547,44.1367188 C31.3613882,44.1367188 30.5604522,43.8006219 29.9657227,43.128418 C29.3709931,42.4562141 29.0736328,41.5367897 29.0736328,40.3701172 L29.0736328,40.1582031 C29.0736328,39.4381474 29.205793,38.7978544 29.4701172,38.2373047 C29.7344414,37.676755 30.1138322,37.241538 30.6083008,36.9316406 C31.1027694,36.6217432 31.6872362,36.4667969 32.3617188,36.4667969 C33.19115,36.4667969 33.8804335,36.7151668 34.4295899,37.2119141 C34.9787462,37.7086613 35.2715493,38.3535117 35.3080078,39.1464844 L34.1117188,39.1464844 C34.0752602,38.6679664 33.8941097,38.2749039 33.5682617,37.9672852 C33.2424137,37.6596664 32.8402368,37.5058594 32.3617188,37.5058594 C31.7191374,37.5058594 31.2212583,37.7371396 30.8680664,38.199707 C30.5148745,38.6622744 30.3382813,39.3310503 30.3382813,40.2060547 L30.3382813,40.4453125 C30.3382813,41.2975303 30.5137352,41.9537737 30.8646484,42.4140625 C31.2155617,42.8743513 31.7168587,43.1044922 32.3685547,43.1044922 Z M39.9992188,44.1367188 C38.9966096,44.1367188 38.1808625,43.8074577 37.5519531,43.1489258 C36.9230437,42.4903938 36.6085938,41.609706 36.6085938,40.5068359 L36.6085938,40.2744141 C36.6085938,39.5406864 36.7487291,38.8855823 37.0290039,38.309082 C37.3092788,37.7325818 37.7012019,37.2814144 38.2047852,36.9555664 C38.7083684,36.6297184 39.2540986,36.4667969 39.8419922,36.4667969 C40.8035855,36.4667969 41.5509739,36.7835255 42.0841797,37.4169922 C42.6173855,38.0504589 42.8839844,38.9573509 42.8839844,40.1376953 L42.8839844,40.6640625 L37.8732422,40.6640625 C37.8914715,41.3932328 38.1045227,41.9822569 38.5124024,42.4311523 C38.920282,42.8800478 39.4386687,43.1044922 40.0675781,43.1044922 C40.514195,43.1044922 40.8924464,43.0133473 41.2023438,42.8310547 C41.5122411,42.6487621 41.7833973,42.4072281 42.0158203,42.1064453 L42.7882813,42.7080078 C42.1684865,43.6604865 41.2388083,44.1367188 39.9992188,44.1367188 Z M39.8419922,37.5058594 C39.331573,37.5058594 38.9031918,37.6915672 38.5568359,38.0629883 C38.2104801,38.4344094 37.9962895,38.9550748 37.9142578,39.625 L41.6193359,39.625 L41.6193359,39.5292969 C41.5828774,38.8867155 41.4097021,38.3888364 41.0998047,38.0356445 C40.7899073,37.6824527 40.3706407,37.5058594 39.8419922,37.5058594 Z M45.8115235,37.4990234 C46.3720731,36.810869 47.1012325,36.4667969 47.9990235,36.4667969 C49.5621823,36.4667969 50.3505859,37.348624 50.3642578,39.1123047 L50.3642578,44 L49.0996094,44 L49.0996094,39.1054688 C49.0950521,38.572263 48.9731457,38.1780612 48.7338867,37.9228516 C48.4946277,37.667642 48.1220729,37.5400391 47.616211,37.5400391 C47.2060527,37.5400391 46.8460302,37.649413 46.5361328,37.8681641 C46.2262354,38.0869152 45.9847014,38.3740217 45.8115235,38.7294922 L45.8115235,44 L44.546875,44 L44.546875,33.5 L45.8115235,33.5 L45.8115235,37.4990234 Z M52.1228516,40.2333984 C52.1228516,39.5087854 52.2652655,38.8570992 52.5500977,38.2783203 C52.8349298,37.6995414 53.2314102,37.2529313 53.7395508,36.9384766 C54.2476914,36.6240219 54.8276009,36.4667969 55.4792969,36.4667969 C56.4864634,36.4667969 57.3010711,36.8154262 57.9231445,37.5126953 C58.545218,38.2099644 58.85625,39.137364 58.85625,40.2949219 L58.85625,40.3837891 C58.85625,41.1038447 58.7183933,41.7498344 58.4426758,42.3217773 C58.1669583,42.8937203 57.7727565,43.3391911 57.2600586,43.6582031 C56.7473607,43.9772151 56.1583367,44.1367188 55.4929688,44.1367188 C54.4903596,44.1367188 53.6780305,43.7880894 53.055957,43.0908203 C52.4338836,42.3935512 52.1228516,41.4707089 52.1228516,40.3222656 L52.1228516,40.2333984 Z M53.394336,40.3837891 C53.394336,41.2041057 53.584601,41.8626277 53.9651367,42.359375 C54.3456725,42.8561223 54.8549447,43.1044922 55.4929688,43.1044922 C56.1355501,43.1044922 56.6459617,42.8527043 57.0242188,42.3491211 C57.4024759,41.8455378 57.5916016,41.140304 57.5916016,40.2333984 C57.5916016,39.4221965 57.3990579,38.7648137 57.0139649,38.2612305 C56.6288718,37.7576472 56.1173209,37.5058594 55.4792969,37.5058594 C54.8549448,37.5058594 54.3513691,37.7542293 53.9685547,38.2509766 C53.5857403,38.7477238 53.394336,39.4586542 53.394336,40.3837891 Z M62.016211,44 L60.7515625,44 L60.7515625,33.5 L62.016211,33.5 L62.016211,44 Z M63.9320313,40.2402344 C63.9320313,39.1054631 64.2009088,38.1928745 64.7386719,37.5024414 C65.276435,36.8120083 65.9805295,36.4667969 66.8509766,36.4667969 C67.7168663,36.4667969 68.4027319,36.7630179 68.9085938,37.3554688 L68.9085938,33.5 L70.1732422,33.5 L70.1732422,44 L69.0111328,44 L68.9496094,43.2070312 C68.4437475,43.826826 67.739653,44.1367188 66.8373047,44.1367188 C65.9805296,44.1367188 65.2821316,43.7858108 64.7420899,43.0839844 C64.2020481,42.3821579 63.9320313,41.4661515 63.9320313,40.3359375 L63.9320313,40.2402344 Z M65.1966797,40.3837891 C65.1966797,41.2223349 65.3698551,41.8785784 65.716211,42.3525391 C66.0625669,42.8264998 66.5410777,43.0634766 67.1517578,43.0634766 C67.9538452,43.0634766 68.5394513,42.7034541 68.9085938,41.9833984 L68.9085938,38.5859375 C68.5303367,37.8886684 67.9492878,37.5400391 67.1654297,37.5400391 C66.5456349,37.5400391 66.0625669,37.7792945 65.716211,38.2578125 C65.3698551,38.7363305 65.1966797,39.4449823 65.1966797,40.3837891 Z M75.4044922,44.1367188 C74.401883,44.1367188 73.586136,43.8074577 72.9572266,43.1489258 C72.3283172,42.4903938 72.0138672,41.609706 72.0138672,40.5068359 L72.0138672,40.2744141 C72.0138672,39.5406864 72.1540025,38.8855823 72.4342774,38.309082 C72.7145522,37.7325818 73.1064754,37.2814144 73.6100586,36.9555664 C74.1136419,36.6297184 74.6593721,36.4667969 75.2472657,36.4667969 C76.208859,36.4667969 76.9562474,36.7835255 77.4894532,37.4169922 C78.0226589,38.0504589 78.2892578,38.9573509 78.2892578,40.1376953 L78.2892578,40.6640625 L73.2785157,40.6640625 C73.2967449,41.3932328 73.5097962,41.9822569 73.9176758,42.4311523 C74.3255555,42.8800478 74.8439422,43.1044922 75.4728516,43.1044922 C75.9194684,43.1044922 76.2977198,43.0133473 76.6076172,42.8310547 C76.9175146,42.6487621 77.1886707,42.4072281 77.4210938,42.1064453 L78.1935547,42.7080078 C77.5737599,43.6604865 76.6440817,44.1367188 75.4044922,44.1367188 Z M75.2472657,37.5058594 C74.7368464,37.5058594 74.3084653,37.6915672 73.9621094,38.0629883 C73.6157535,38.4344094 73.4015629,38.9550748 73.3195313,39.625 L77.0246094,39.625 L77.0246094,39.5292969 C76.9881509,38.8867155 76.8149755,38.3888364 76.5050782,38.0356445 C76.1951808,37.6824527 75.7759141,37.5058594 75.2472657,37.5058594 Z M83.5273438,37.7382812 C83.3359366,37.70638 83.1285819,37.6904297 82.9052735,37.6904297 C82.0758422,37.6904297 81.5130223,38.0436163 81.2167969,38.75 L81.2167969,44 L79.9521485,44 L79.9521485,36.6035156 L81.1826172,36.6035156 L81.203125,37.4580078 C81.6178406,36.7971972 82.2057254,36.4667969 82.9667969,36.4667969 C83.2128919,36.4667969 83.399739,36.4986976 83.5273438,36.5625 L83.5273438,37.7382812 Z" id="placeholder" fill="#666666" fill-rule="nonzero" opacity="0.562174479"></path>
                        </g>
                    </g>
                    <g id="hid-input__default" transform="translate(24.000000, 170.000000)">
                        <g id="input">
                            <rect id="input__background" stroke="#DDDDDD" fill="#FFFFFF" x="0" y="20" width="361" height="38" rx="4"></rect>
                            <path d="M2.34960938,7.81640625 L6.22265625,7.81640625 L6.22265625,9 L0.8671875,9 L0.8671875,0.46875 L2.34960938,0.46875 L2.34960938,7.81640625 Z M10.8222656,9 C10.7597653,8.87890564 10.7050784,8.68164199 10.6582031,8.40820312 C10.2050759,8.88086174 9.65039391,9.1171875 8.99414062,9.1171875 C8.35741869,9.1171875 7.83789264,8.93554869 7.43554688,8.57226562 C7.03320111,8.20898256 6.83203125,7.7597683 6.83203125,7.22460938 C6.83203125,6.54882475 7.0830053,6.03027524 7.58496094,5.66894531 C8.08691657,5.30761538 8.80468283,5.12695312 9.73828125,5.12695312 L10.6113281,5.12695312 L10.6113281,4.7109375 C10.6113281,4.38281086 10.5195322,4.12011817 10.3359375,3.92285156 C10.1523428,3.72558495 9.87304875,3.62695312 9.49804688,3.62695312 C9.1738265,3.62695312 8.90820416,3.708007 8.70117188,3.87011719 C8.49413959,4.03222737 8.390625,4.23828 8.390625,4.48828125 L6.96679688,4.48828125 C6.96679688,4.14062326 7.0820301,3.8154312 7.3125,3.51269531 C7.5429699,3.20995942 7.85644333,2.97265711 8.25292969,2.80078125 C8.64941604,2.62890539 9.09179443,2.54296875 9.58007812,2.54296875 C10.3222693,2.54296875 10.9140603,2.72949032 11.3554688,3.10253906 C11.7968772,3.4755878 12.0234374,3.99999662 12.0351562,4.67578125 L12.0351562,7.53515625 C12.0351562,8.1054716 12.1152336,8.56054518 12.2753906,8.90039062 L12.2753906,9 L10.8222656,9 Z M9.2578125,7.97460938 C9.53906391,7.97460938 9.8037097,7.90625068 10.0517578,7.76953125 C10.2998059,7.63281182 10.4863275,7.4492199 10.6113281,7.21875 L10.6113281,6.0234375 L9.84375,6.0234375 C9.31640361,6.0234375 8.9199232,6.11523346 8.65429688,6.29882812 C8.38867055,6.48242279 8.25585938,6.74218582 8.25585938,7.078125 C8.25585938,7.35156387 8.34667878,7.56933513 8.52832031,7.73144531 C8.70996185,7.8935555 8.95312348,7.97460938 9.2578125,7.97460938 Z M18.9023438,5.89453125 C18.9023438,6.87891117 18.6826194,7.66210646 18.2431641,8.24414062 C17.8037087,8.82617479 17.1992226,9.1171875 16.4296875,9.1171875 C15.6874963,9.1171875 15.1093771,8.84961205 14.6953125,8.31445312 L14.625,9 L13.3359375,9 L13.3359375,0 L14.7597656,0 L14.7597656,3.26953125 C15.1699239,2.78515383 15.7226528,2.54296875 16.4179688,2.54296875 C17.1914101,2.54296875 17.7988259,2.83007525 18.2402344,3.40429688 C18.6816428,3.9785185 18.9023438,4.78124484 18.9023438,5.8125 L18.9023438,5.89453125 Z M17.4785156,5.77148438 C17.4785156,5.08398094 17.3574231,4.56836109 17.1152344,4.22460938 C16.8730457,3.88085766 16.5214867,3.70898438 16.0605469,3.70898438 C15.4433563,3.70898438 15.0097669,3.97851293 14.7597656,4.51757812 L14.7597656,7.13085938 C15.0136731,7.68164338 15.4511688,7.95703125 16.0722656,7.95703125 C16.5175804,7.95703125 16.8613269,7.79101729 17.1035156,7.45898438 C17.3457043,7.12695146 17.4707031,6.62500336 17.4785156,5.953125 L17.4785156,5.77148438 Z M22.6992188,9.1171875 C21.7968705,9.1171875 21.0654325,8.83301065 20.5048828,8.26464844 C19.9443331,7.69628622 19.6640625,6.93945785 19.6640625,5.99414062 L19.6640625,5.81835938 C19.6640625,5.18554371 19.7861316,4.62011968 20.0302734,4.12207031 C20.2744153,3.62402095 20.6171853,3.23632951 21.0585938,2.95898438 C21.5000022,2.68163924 21.9921848,2.54296875 22.5351562,2.54296875 C23.3984418,2.54296875 24.0654273,2.81835662 24.5361328,3.36914062 C25.0068383,3.91992463 25.2421875,4.69921371 25.2421875,5.70703125 L25.2421875,6.28125 L21.0996094,6.28125 C21.1425783,6.80469012 21.3173813,7.21874848 21.6240234,7.5234375 C21.9306656,7.82812652 22.3164039,7.98046875 22.78125,7.98046875 C23.433597,7.98046875 23.9648417,7.71679951 24.375,7.18945312 L25.1425781,7.921875 C24.8886706,8.30078314 24.5498068,8.59472552 24.1259766,8.80371094 C23.7021463,9.01269636 23.2265651,9.1171875 22.6992188,9.1171875 Z M22.5292969,3.68554688 C22.1386699,3.68554688 21.8232434,3.82226426 21.5830078,4.09570312 C21.3427722,4.36914199 21.1894535,4.74999756 21.1230469,5.23828125 L23.8359375,5.23828125 L23.8359375,5.1328125 C23.8046873,4.65624762 23.6777355,4.29589966 23.4550781,4.05175781 C23.2324208,3.80761597 22.9238301,3.68554688 22.5292969,3.68554688 Z M27.6738281,9 L26.25,9 L26.25,0 L27.6738281,0 L27.6738281,9 Z" id="label" fill="#555555" fill-rule="nonzero"></path>
                            <path d="M10.4677734,40.1035156 L10.4677734,44 L9.15527344,44 L9.15527344,34.046875 L12.8261719,34.046875 C13.91537,34.046875 14.7687144,34.324867 15.3862305,34.8808594 C16.0037466,35.4368517 16.3125,36.172847 16.3125,37.0888672 C16.3125,38.0550179 16.0105824,38.7989883 15.4067383,39.3208008 C14.8028941,39.8426133 13.9381567,40.1035156 12.8125,40.1035156 L10.4677734,40.1035156 Z M10.4677734,39.0302734 L12.8261719,39.0302734 C13.5279983,39.0302734 14.0657533,38.8650733 14.4394531,38.534668 C14.8131529,38.2042627 15,37.7268911 15,37.1025391 C15,36.5100882 14.8131529,36.0361346 14.4394531,35.6806641 C14.0657533,35.3251935 13.5530632,35.1406251 12.9013672,35.1269531 L10.4677734,35.1269531 L10.4677734,39.0302734 Z M19.3630859,44 L18.0984375,44 L18.0984375,33.5 L19.3630859,33.5 L19.3630859,44 Z M26.1529297,44 C26.0800127,43.8541659 26.0207685,43.5944029 25.9751953,43.2207031 C25.3873018,43.8313833 24.6854859,44.1367188 23.8697266,44.1367188 C23.1405563,44.1367188 22.5424177,43.9305034 22.075293,43.5180664 C21.6081682,43.1056294 21.3746094,42.5826855 21.3746094,41.9492188 C21.3746094,41.1790326 21.6674124,40.5808941 22.2530273,40.1547852 C22.8386423,39.7286763 23.6623645,39.515625 24.7242188,39.515625 L25.9546875,39.515625 L25.9546875,38.9345703 C25.9546875,38.4925108 25.8225274,38.1404635 25.5582031,37.878418 C25.2938789,37.6163724 24.9042344,37.4853516 24.3892578,37.4853516 C23.9380837,37.4853516 23.5598323,37.5992827 23.2544922,37.8271484 C22.9491521,38.0550142 22.7964844,38.3307275 22.7964844,38.6542969 L21.525,38.6542969 C21.525,38.2851544 21.6560208,37.9285499 21.9180664,37.5844727 C22.180112,37.2403954 22.5355772,36.9681 22.9844727,36.7675781 C23.4333681,36.5670563 23.92669,36.4667969 24.4644531,36.4667969 C25.3166709,36.4667969 25.9843075,36.6798481 26.4673828,37.105957 C26.9504582,37.5320659 27.2011067,38.1188114 27.2193359,38.8662109 L27.2193359,42.2705078 C27.2193359,42.9495477 27.3059236,43.4895813 27.4791016,43.890625 L27.4791016,44 L26.1529297,44 Z M24.0542969,43.0361328 C24.4507832,43.0361328 24.826756,42.9335948 25.1822266,42.7285156 C25.5376971,42.5234365 25.7951815,42.2568376 25.9546875,41.9287109 L25.9546875,40.4111328 L24.9634766,40.4111328 C23.4139897,40.4111328 22.6392578,40.8645788 22.6392578,41.7714844 C22.6392578,42.1679707 22.771418,42.4778635 23.0357422,42.7011719 C23.3000664,42.9244803 23.6395813,43.0361328 24.0542969,43.0361328 Z M32.3685547,43.1044922 C32.8197288,43.1044922 33.2139306,42.9677748 33.5511719,42.6943359 C33.8884132,42.4208971 34.0752602,42.0791036 34.1117188,41.6689453 L35.3080078,41.6689453 C35.2852212,42.0927756 35.1393894,42.4960918 34.8705078,42.8789062 C34.6016263,43.2617207 34.2427431,43.5670562 33.7938477,43.7949219 C33.3449522,44.0227876 32.8698593,44.1367188 32.3685547,44.1367188 C31.3613882,44.1367188 30.5604522,43.8006219 29.9657227,43.128418 C29.3709931,42.4562141 29.0736328,41.5367897 29.0736328,40.3701172 L29.0736328,40.1582031 C29.0736328,39.4381474 29.205793,38.7978544 29.4701172,38.2373047 C29.7344414,37.676755 30.1138322,37.241538 30.6083008,36.9316406 C31.1027694,36.6217432 31.6872362,36.4667969 32.3617188,36.4667969 C33.19115,36.4667969 33.8804335,36.7151668 34.4295899,37.2119141 C34.9787462,37.7086613 35.2715493,38.3535117 35.3080078,39.1464844 L34.1117188,39.1464844 C34.0752602,38.6679664 33.8941097,38.2749039 33.5682617,37.9672852 C33.2424137,37.6596664 32.8402368,37.5058594 32.3617188,37.5058594 C31.7191374,37.5058594 31.2212583,37.7371396 30.8680664,38.199707 C30.5148745,38.6622744 30.3382813,39.3310503 30.3382813,40.2060547 L30.3382813,40.4453125 C30.3382813,41.2975303 30.5137352,41.9537737 30.8646484,42.4140625 C31.2155617,42.8743513 31.7168587,43.1044922 32.3685547,43.1044922 Z M39.9992188,44.1367188 C38.9966096,44.1367188 38.1808625,43.8074577 37.5519531,43.1489258 C36.9230437,42.4903938 36.6085938,41.609706 36.6085938,40.5068359 L36.6085938,40.2744141 C36.6085938,39.5406864 36.7487291,38.8855823 37.0290039,38.309082 C37.3092788,37.7325818 37.7012019,37.2814144 38.2047852,36.9555664 C38.7083684,36.6297184 39.2540986,36.4667969 39.8419922,36.4667969 C40.8035855,36.4667969 41.5509739,36.7835255 42.0841797,37.4169922 C42.6173855,38.0504589 42.8839844,38.9573509 42.8839844,40.1376953 L42.8839844,40.6640625 L37.8732422,40.6640625 C37.8914715,41.3932328 38.1045227,41.9822569 38.5124024,42.4311523 C38.920282,42.8800478 39.4386687,43.1044922 40.0675781,43.1044922 C40.514195,43.1044922 40.8924464,43.0133473 41.2023438,42.8310547 C41.5122411,42.6487621 41.7833973,42.4072281 42.0158203,42.1064453 L42.7882813,42.7080078 C42.1684865,43.6604865 41.2388083,44.1367188 39.9992188,44.1367188 Z M39.8419922,37.5058594 C39.331573,37.5058594 38.9031918,37.6915672 38.5568359,38.0629883 C38.2104801,38.4344094 37.9962895,38.9550748 37.9142578,39.625 L41.6193359,39.625 L41.6193359,39.5292969 C41.5828774,38.8867155 41.4097021,38.3888364 41.0998047,38.0356445 C40.7899073,37.6824527 40.3706407,37.5058594 39.8419922,37.5058594 Z M45.8115235,37.4990234 C46.3720731,36.810869 47.1012325,36.4667969 47.9990235,36.4667969 C49.5621823,36.4667969 50.3505859,37.348624 50.3642578,39.1123047 L50.3642578,44 L49.0996094,44 L49.0996094,39.1054688 C49.0950521,38.572263 48.9731457,38.1780612 48.7338867,37.9228516 C48.4946277,37.667642 48.1220729,37.5400391 47.616211,37.5400391 C47.2060527,37.5400391 46.8460302,37.649413 46.5361328,37.8681641 C46.2262354,38.0869152 45.9847014,38.3740217 45.8115235,38.7294922 L45.8115235,44 L44.546875,44 L44.546875,33.5 L45.8115235,33.5 L45.8115235,37.4990234 Z M52.1228516,40.2333984 C52.1228516,39.5087854 52.2652655,38.8570992 52.5500977,38.2783203 C52.8349298,37.6995414 53.2314102,37.2529313 53.7395508,36.9384766 C54.2476914,36.6240219 54.8276009,36.4667969 55.4792969,36.4667969 C56.4864634,36.4667969 57.3010711,36.8154262 57.9231445,37.5126953 C58.545218,38.2099644 58.85625,39.137364 58.85625,40.2949219 L58.85625,40.3837891 C58.85625,41.1038447 58.7183933,41.7498344 58.4426758,42.3217773 C58.1669583,42.8937203 57.7727565,43.3391911 57.2600586,43.6582031 C56.7473607,43.9772151 56.1583367,44.1367188 55.4929688,44.1367188 C54.4903596,44.1367188 53.6780305,43.7880894 53.055957,43.0908203 C52.4338836,42.3935512 52.1228516,41.4707089 52.1228516,40.3222656 L52.1228516,40.2333984 Z M53.394336,40.3837891 C53.394336,41.2041057 53.584601,41.8626277 53.9651367,42.359375 C54.3456725,42.8561223 54.8549447,43.1044922 55.4929688,43.1044922 C56.1355501,43.1044922 56.6459617,42.8527043 57.0242188,42.3491211 C57.4024759,41.8455378 57.5916016,41.140304 57.5916016,40.2333984 C57.5916016,39.4221965 57.3990579,38.7648137 57.0139649,38.2612305 C56.6288718,37.7576472 56.1173209,37.5058594 55.4792969,37.5058594 C54.8549448,37.5058594 54.3513691,37.7542293 53.9685547,38.2509766 C53.5857403,38.7477238 53.394336,39.4586542 53.394336,40.3837891 Z M62.016211,44 L60.7515625,44 L60.7515625,33.5 L62.016211,33.5 L62.016211,44 Z M63.9320313,40.2402344 C63.9320313,39.1054631 64.2009088,38.1928745 64.7386719,37.5024414 C65.276435,36.8120083 65.9805295,36.4667969 66.8509766,36.4667969 C67.7168663,36.4667969 68.4027319,36.7630179 68.9085938,37.3554688 L68.9085938,33.5 L70.1732422,33.5 L70.1732422,44 L69.0111328,44 L68.9496094,43.2070312 C68.4437475,43.826826 67.739653,44.1367188 66.8373047,44.1367188 C65.9805296,44.1367188 65.2821316,43.7858108 64.7420899,43.0839844 C64.2020481,42.3821579 63.9320313,41.4661515 63.9320313,40.3359375 L63.9320313,40.2402344 Z M65.1966797,40.3837891 C65.1966797,41.2223349 65.3698551,41.8785784 65.716211,42.3525391 C66.0625669,42.8264998 66.5410777,43.0634766 67.1517578,43.0634766 C67.9538452,43.0634766 68.5394513,42.7034541 68.9085938,41.9833984 L68.9085938,38.5859375 C68.5303367,37.8886684 67.9492878,37.5400391 67.1654297,37.5400391 C66.5456349,37.5400391 66.0625669,37.7792945 65.716211,38.2578125 C65.3698551,38.7363305 65.1966797,39.4449823 65.1966797,40.3837891 Z M75.4044922,44.1367188 C74.401883,44.1367188 73.586136,43.8074577 72.9572266,43.1489258 C72.3283172,42.4903938 72.0138672,41.609706 72.0138672,40.5068359 L72.0138672,40.2744141 C72.0138672,39.5406864 72.1540025,38.8855823 72.4342774,38.309082 C72.7145522,37.7325818 73.1064754,37.2814144 73.6100586,36.9555664 C74.1136419,36.6297184 74.6593721,36.4667969 75.2472657,36.4667969 C76.208859,36.4667969 76.9562474,36.7835255 77.4894532,37.4169922 C78.0226589,38.0504589 78.2892578,38.9573509 78.2892578,40.1376953 L78.2892578,40.6640625 L73.2785157,40.6640625 C73.2967449,41.3932328 73.5097962,41.9822569 73.9176758,42.4311523 C74.3255555,42.8800478 74.8439422,43.1044922 75.4728516,43.1044922 C75.9194684,43.1044922 76.2977198,43.0133473 76.6076172,42.8310547 C76.9175146,42.6487621 77.1886707,42.4072281 77.4210938,42.1064453 L78.1935547,42.7080078 C77.5737599,43.6604865 76.6440817,44.1367188 75.4044922,44.1367188 Z M75.2472657,37.5058594 C74.7368464,37.5058594 74.3084653,37.6915672 73.9621094,38.0629883 C73.6157535,38.4344094 73.4015629,38.9550748 73.3195313,39.625 L77.0246094,39.625 L77.0246094,39.5292969 C76.9881509,38.8867155 76.8149755,38.3888364 76.5050782,38.0356445 C76.1951808,37.6824527 75.7759141,37.5058594 75.2472657,37.5058594 Z M83.5273438,37.7382812 C83.3359366,37.70638 83.1285819,37.6904297 82.9052735,37.6904297 C82.0758422,37.6904297 81.5130223,38.0436163 81.2167969,38.75 L81.2167969,44 L79.9521485,44 L79.9521485,36.6035156 L81.1826172,36.6035156 L81.203125,37.4580078 C81.6178406,36.7971972 82.2057254,36.4667969 82.9667969,36.4667969 C83.2128919,36.4667969 83.399739,36.4986976 83.5273438,36.5625 L83.5273438,37.7382812 Z" id="placeholder" fill="#666666" fill-rule="nonzero" opacity="0.562174479"></path>
                        </g>
                    </g>
                    <g id="hid-input__default" transform="translate(24.000000, 266.000000)">
                        <g id="input">
                            <rect id="input__background" stroke="#DDDDDD" fill="#FFFFFF" x="0" y="20" width="361" height="38" rx="4"></rect>
                            <path d="M2.34960938,7.81640625 L6.22265625,7.81640625 L6.22265625,9 L0.8671875,9 L0.8671875,0.46875 L2.34960938,0.46875 L2.34960938,7.81640625 Z M10.8222656,9 C10.7597653,8.87890564 10.7050784,8.68164199 10.6582031,8.40820312 C10.2050759,8.88086174 9.65039391,9.1171875 8.99414062,9.1171875 C8.35741869,9.1171875 7.83789264,8.93554869 7.43554688,8.57226562 C7.03320111,8.20898256 6.83203125,7.7597683 6.83203125,7.22460938 C6.83203125,6.54882475 7.0830053,6.03027524 7.58496094,5.66894531 C8.08691657,5.30761538 8.80468283,5.12695312 9.73828125,5.12695312 L10.6113281,5.12695312 L10.6113281,4.7109375 C10.6113281,4.38281086 10.5195322,4.12011817 10.3359375,3.92285156 C10.1523428,3.72558495 9.87304875,3.62695312 9.49804688,3.62695312 C9.1738265,3.62695312 8.90820416,3.708007 8.70117188,3.87011719 C8.49413959,4.03222737 8.390625,4.23828 8.390625,4.48828125 L6.96679688,4.48828125 C6.96679688,4.14062326 7.0820301,3.8154312 7.3125,3.51269531 C7.5429699,3.20995942 7.85644333,2.97265711 8.25292969,2.80078125 C8.64941604,2.62890539 9.09179443,2.54296875 9.58007812,2.54296875 C10.3222693,2.54296875 10.9140603,2.72949032 11.3554688,3.10253906 C11.7968772,3.4755878 12.0234374,3.99999662 12.0351562,4.67578125 L12.0351562,7.53515625 C12.0351562,8.1054716 12.1152336,8.56054518 12.2753906,8.90039062 L12.2753906,9 L10.8222656,9 Z M9.2578125,7.97460938 C9.53906391,7.97460938 9.8037097,7.90625068 10.0517578,7.76953125 C10.2998059,7.63281182 10.4863275,7.4492199 10.6113281,7.21875 L10.6113281,6.0234375 L9.84375,6.0234375 C9.31640361,6.0234375 8.9199232,6.11523346 8.65429688,6.29882812 C8.38867055,6.48242279 8.25585938,6.74218582 8.25585938,7.078125 C8.25585938,7.35156387 8.34667878,7.56933513 8.52832031,7.73144531 C8.70996185,7.8935555 8.95312348,7.97460938 9.2578125,7.97460938 Z M18.9023438,5.89453125 C18.9023438,6.87891117 18.6826194,7.66210646 18.2431641,8.24414062 C17.8037087,8.82617479 17.1992226,9.1171875 16.4296875,9.1171875 C15.6874963,9.1171875 15.1093771,8.84961205 14.6953125,8.31445312 L14.625,9 L13.3359375,9 L13.3359375,0 L14.7597656,0 L14.7597656,3.26953125 C15.1699239,2.78515383 15.7226528,2.54296875 16.4179688,2.54296875 C17.1914101,2.54296875 17.7988259,2.83007525 18.2402344,3.40429688 C18.6816428,3.9785185 18.9023438,4.78124484 18.9023438,5.8125 L18.9023438,5.89453125 Z M17.4785156,5.77148438 C17.4785156,5.08398094 17.3574231,4.56836109 17.1152344,4.22460938 C16.8730457,3.88085766 16.5214867,3.70898438 16.0605469,3.70898438 C15.4433563,3.70898438 15.0097669,3.97851293 14.7597656,4.51757812 L14.7597656,7.13085938 C15.0136731,7.68164338 15.4511688,7.95703125 16.0722656,7.95703125 C16.5175804,7.95703125 16.8613269,7.79101729 17.1035156,7.45898438 C17.3457043,7.12695146 17.4707031,6.62500336 17.4785156,5.953125 L17.4785156,5.77148438 Z M22.6992188,9.1171875 C21.7968705,9.1171875 21.0654325,8.83301065 20.5048828,8.26464844 C19.9443331,7.69628622 19.6640625,6.93945785 19.6640625,5.99414062 L19.6640625,5.81835938 C19.6640625,5.18554371 19.7861316,4.62011968 20.0302734,4.12207031 C20.2744153,3.62402095 20.6171853,3.23632951 21.0585938,2.95898438 C21.5000022,2.68163924 21.9921848,2.54296875 22.5351562,2.54296875 C23.3984418,2.54296875 24.0654273,2.81835662 24.5361328,3.36914062 C25.0068383,3.91992463 25.2421875,4.69921371 25.2421875,5.70703125 L25.2421875,6.28125 L21.0996094,6.28125 C21.1425783,6.80469012 21.3173813,7.21874848 21.6240234,7.5234375 C21.9306656,7.82812652 22.3164039,7.98046875 22.78125,7.98046875 C23.433597,7.98046875 23.9648417,7.71679951 24.375,7.18945312 L25.1425781,7.921875 C24.8886706,8.30078314 24.5498068,8.59472552 24.1259766,8.80371094 C23.7021463,9.01269636 23.2265651,9.1171875 22.6992188,9.1171875 Z M22.5292969,3.68554688 C22.1386699,3.68554688 21.8232434,3.82226426 21.5830078,4.09570312 C21.3427722,4.36914199 21.1894535,4.74999756 21.1230469,5.23828125 L23.8359375,5.23828125 L23.8359375,5.1328125 C23.8046873,4.65624762 23.6777355,4.29589966 23.4550781,4.05175781 C23.2324208,3.80761597 22.9238301,3.68554688 22.5292969,3.68554688 Z M27.6738281,9 L26.25,9 L26.25,0 L27.6738281,0 L27.6738281,9 Z" id="label" fill="#555555" fill-rule="nonzero"></path>
                            <path d="M10.4677734,40.1035156 L10.4677734,44 L9.15527344,44 L9.15527344,34.046875 L12.8261719,34.046875 C13.91537,34.046875 14.7687144,34.324867 15.3862305,34.8808594 C16.0037466,35.4368517 16.3125,36.172847 16.3125,37.0888672 C16.3125,38.0550179 16.0105824,38.7989883 15.4067383,39.3208008 C14.8028941,39.8426133 13.9381567,40.1035156 12.8125,40.1035156 L10.4677734,40.1035156 Z M10.4677734,39.0302734 L12.8261719,39.0302734 C13.5279983,39.0302734 14.0657533,38.8650733 14.4394531,38.534668 C14.8131529,38.2042627 15,37.7268911 15,37.1025391 C15,36.5100882 14.8131529,36.0361346 14.4394531,35.6806641 C14.0657533,35.3251935 13.5530632,35.1406251 12.9013672,35.1269531 L10.4677734,35.1269531 L10.4677734,39.0302734 Z M19.3630859,44 L18.0984375,44 L18.0984375,33.5 L19.3630859,33.5 L19.3630859,44 Z M26.1529297,44 C26.0800127,43.8541659 26.0207685,43.5944029 25.9751953,43.2207031 C25.3873018,43.8313833 24.6854859,44.1367188 23.8697266,44.1367188 C23.1405563,44.1367188 22.5424177,43.9305034 22.075293,43.5180664 C21.6081682,43.1056294 21.3746094,42.5826855 21.3746094,41.9492188 C21.3746094,41.1790326 21.6674124,40.5808941 22.2530273,40.1547852 C22.8386423,39.7286763 23.6623645,39.515625 24.7242188,39.515625 L25.9546875,39.515625 L25.9546875,38.9345703 C25.9546875,38.4925108 25.8225274,38.1404635 25.5582031,37.878418 C25.2938789,37.6163724 24.9042344,37.4853516 24.3892578,37.4853516 C23.9380837,37.4853516 23.5598323,37.5992827 23.2544922,37.8271484 C22.9491521,38.0550142 22.7964844,38.3307275 22.7964844,38.6542969 L21.525,38.6542969 C21.525,38.2851544 21.6560208,37.9285499 21.9180664,37.5844727 C22.180112,37.2403954 22.5355772,36.9681 22.9844727,36.7675781 C23.4333681,36.5670563 23.92669,36.4667969 24.4644531,36.4667969 C25.3166709,36.4667969 25.9843075,36.6798481 26.4673828,37.105957 C26.9504582,37.5320659 27.2011067,38.1188114 27.2193359,38.8662109 L27.2193359,42.2705078 C27.2193359,42.9495477 27.3059236,43.4895813 27.4791016,43.890625 L27.4791016,44 L26.1529297,44 Z M24.0542969,43.0361328 C24.4507832,43.0361328 24.826756,42.9335948 25.1822266,42.7285156 C25.5376971,42.5234365 25.7951815,42.2568376 25.9546875,41.9287109 L25.9546875,40.4111328 L24.9634766,40.4111328 C23.4139897,40.4111328 22.6392578,40.8645788 22.6392578,41.7714844 C22.6392578,42.1679707 22.771418,42.4778635 23.0357422,42.7011719 C23.3000664,42.9244803 23.6395813,43.0361328 24.0542969,43.0361328 Z M32.3685547,43.1044922 C32.8197288,43.1044922 33.2139306,42.9677748 33.5511719,42.6943359 C33.8884132,42.4208971 34.0752602,42.0791036 34.1117188,41.6689453 L35.3080078,41.6689453 C35.2852212,42.0927756 35.1393894,42.4960918 34.8705078,42.8789062 C34.6016263,43.2617207 34.2427431,43.5670562 33.7938477,43.7949219 C33.3449522,44.0227876 32.8698593,44.1367188 32.3685547,44.1367188 C31.3613882,44.1367188 30.5604522,43.8006219 29.9657227,43.128418 C29.3709931,42.4562141 29.0736328,41.5367897 29.0736328,40.3701172 L29.0736328,40.1582031 C29.0736328,39.4381474 29.205793,38.7978544 29.4701172,38.2373047 C29.7344414,37.676755 30.1138322,37.241538 30.6083008,36.9316406 C31.1027694,36.6217432 31.6872362,36.4667969 32.3617188,36.4667969 C33.19115,36.4667969 33.8804335,36.7151668 34.4295899,37.2119141 C34.9787462,37.7086613 35.2715493,38.3535117 35.3080078,39.1464844 L34.1117188,39.1464844 C34.0752602,38.6679664 33.8941097,38.2749039 33.5682617,37.9672852 C33.2424137,37.6596664 32.8402368,37.5058594 32.3617188,37.5058594 C31.7191374,37.5058594 31.2212583,37.7371396 30.8680664,38.199707 C30.5148745,38.6622744 30.3382813,39.3310503 30.3382813,40.2060547 L30.3382813,40.4453125 C30.3382813,41.2975303 30.5137352,41.9537737 30.8646484,42.4140625 C31.2155617,42.8743513 31.7168587,43.1044922 32.3685547,43.1044922 Z M39.9992188,44.1367188 C38.9966096,44.1367188 38.1808625,43.8074577 37.5519531,43.1489258 C36.9230437,42.4903938 36.6085938,41.609706 36.6085938,40.5068359 L36.6085938,40.2744141 C36.6085938,39.5406864 36.7487291,38.8855823 37.0290039,38.309082 C37.3092788,37.7325818 37.7012019,37.2814144 38.2047852,36.9555664 C38.7083684,36.6297184 39.2540986,36.4667969 39.8419922,36.4667969 C40.8035855,36.4667969 41.5509739,36.7835255 42.0841797,37.4169922 C42.6173855,38.0504589 42.8839844,38.9573509 42.8839844,40.1376953 L42.8839844,40.6640625 L37.8732422,40.6640625 C37.8914715,41.3932328 38.1045227,41.9822569 38.5124024,42.4311523 C38.920282,42.8800478 39.4386687,43.1044922 40.0675781,43.1044922 C40.514195,43.1044922 40.8924464,43.0133473 41.2023438,42.8310547 C41.5122411,42.6487621 41.7833973,42.4072281 42.0158203,42.1064453 L42.7882813,42.7080078 C42.1684865,43.6604865 41.2388083,44.1367188 39.9992188,44.1367188 Z M39.8419922,37.5058594 C39.331573,37.5058594 38.9031918,37.6915672 38.5568359,38.0629883 C38.2104801,38.4344094 37.9962895,38.9550748 37.9142578,39.625 L41.6193359,39.625 L41.6193359,39.5292969 C41.5828774,38.8867155 41.4097021,38.3888364 41.0998047,38.0356445 C40.7899073,37.6824527 40.3706407,37.5058594 39.8419922,37.5058594 Z M45.8115235,37.4990234 C46.3720731,36.810869 47.1012325,36.4667969 47.9990235,36.4667969 C49.5621823,36.4667969 50.3505859,37.348624 50.3642578,39.1123047 L50.3642578,44 L49.0996094,44 L49.0996094,39.1054688 C49.0950521,38.572263 48.9731457,38.1780612 48.7338867,37.9228516 C48.4946277,37.667642 48.1220729,37.5400391 47.616211,37.5400391 C47.2060527,37.5400391 46.8460302,37.649413 46.5361328,37.8681641 C46.2262354,38.0869152 45.9847014,38.3740217 45.8115235,38.7294922 L45.8115235,44 L44.546875,44 L44.546875,33.5 L45.8115235,33.5 L45.8115235,37.4990234 Z M52.1228516,40.2333984 C52.1228516,39.5087854 52.2652655,38.8570992 52.5500977,38.2783203 C52.8349298,37.6995414 53.2314102,37.2529313 53.7395508,36.9384766 C54.2476914,36.6240219 54.8276009,36.4667969 55.4792969,36.4667969 C56.4864634,36.4667969 57.3010711,36.8154262 57.9231445,37.5126953 C58.545218,38.2099644 58.85625,39.137364 58.85625,40.2949219 L58.85625,40.3837891 C58.85625,41.1038447 58.7183933,41.7498344 58.4426758,42.3217773 C58.1669583,42.8937203 57.7727565,43.3391911 57.2600586,43.6582031 C56.7473607,43.9772151 56.1583367,44.1367188 55.4929688,44.1367188 C54.4903596,44.1367188 53.6780305,43.7880894 53.055957,43.0908203 C52.4338836,42.3935512 52.1228516,41.4707089 52.1228516,40.3222656 L52.1228516,40.2333984 Z M53.394336,40.3837891 C53.394336,41.2041057 53.584601,41.8626277 53.9651367,42.359375 C54.3456725,42.8561223 54.8549447,43.1044922 55.4929688,43.1044922 C56.1355501,43.1044922 56.6459617,42.8527043 57.0242188,42.3491211 C57.4024759,41.8455378 57.5916016,41.140304 57.5916016,40.2333984 C57.5916016,39.4221965 57.3990579,38.7648137 57.0139649,38.2612305 C56.6288718,37.7576472 56.1173209,37.5058594 55.4792969,37.5058594 C54.8549448,37.5058594 54.3513691,37.7542293 53.9685547,38.2509766 C53.5857403,38.7477238 53.394336,39.4586542 53.394336,40.3837891 Z M62.016211,44 L60.7515625,44 L60.7515625,33.5 L62.016211,33.5 L62.016211,44 Z M63.9320313,40.2402344 C63.9320313,39.1054631 64.2009088,38.1928745 64.7386719,37.5024414 C65.276435,36.8120083 65.9805295,36.4667969 66.8509766,36.4667969 C67.7168663,36.4667969 68.4027319,36.7630179 68.9085938,37.3554688 L68.9085938,33.5 L70.1732422,33.5 L70.1732422,44 L69.0111328,44 L68.9496094,43.2070312 C68.4437475,43.826826 67.739653,44.1367188 66.8373047,44.1367188 C65.9805296,44.1367188 65.2821316,43.7858108 64.7420899,43.0839844 C64.2020481,42.3821579 63.9320313,41.4661515 63.9320313,40.3359375 L63.9320313,40.2402344 Z M65.1966797,40.3837891 C65.1966797,41.2223349 65.3698551,41.8785784 65.716211,42.3525391 C66.0625669,42.8264998 66.5410777,43.0634766 67.1517578,43.0634766 C67.9538452,43.0634766 68.5394513,42.7034541 68.9085938,41.9833984 L68.9085938,38.5859375 C68.5303367,37.8886684 67.9492878,37.5400391 67.1654297,37.5400391 C66.5456349,37.5400391 66.0625669,37.7792945 65.716211,38.2578125 C65.3698551,38.7363305 65.1966797,39.4449823 65.1966797,40.3837891 Z M75.4044922,44.1367188 C74.401883,44.1367188 73.586136,43.8074577 72.9572266,43.1489258 C72.3283172,42.4903938 72.0138672,41.609706 72.0138672,40.5068359 L72.0138672,40.2744141 C72.0138672,39.5406864 72.1540025,38.8855823 72.4342774,38.309082 C72.7145522,37.7325818 73.1064754,37.2814144 73.6100586,36.9555664 C74.1136419,36.6297184 74.6593721,36.4667969 75.2472657,36.4667969 C76.208859,36.4667969 76.9562474,36.7835255 77.4894532,37.4169922 C78.0226589,38.0504589 78.2892578,38.9573509 78.2892578,40.1376953 L78.2892578,40.6640625 L73.2785157,40.6640625 C73.2967449,41.3932328 73.5097962,41.9822569 73.9176758,42.4311523 C74.3255555,42.8800478 74.8439422,43.1044922 75.4728516,43.1044922 C75.9194684,43.1044922 76.2977198,43.0133473 76.6076172,42.8310547 C76.9175146,42.6487621 77.1886707,42.4072281 77.4210938,42.1064453 L78.1935547,42.7080078 C77.5737599,43.6604865 76.6440817,44.1367188 75.4044922,44.1367188 Z M75.2472657,37.5058594 C74.7368464,37.5058594 74.3084653,37.6915672 73.9621094,38.0629883 C73.6157535,38.4344094 73.4015629,38.9550748 73.3195313,39.625 L77.0246094,39.625 L77.0246094,39.5292969 C76.9881509,38.8867155 76.8149755,38.3888364 76.5050782,38.0356445 C76.1951808,37.6824527 75.7759141,37.5058594 75.2472657,37.5058594 Z M83.5273438,37.7382812 C83.3359366,37.70638 83.1285819,37.6904297 82.9052735,37.6904297 C82.0758422,37.6904297 81.5130223,38.0436163 81.2167969,38.75 L81.2167969,44 L79.9521485,44 L79.9521485,36.6035156 L81.1826172,36.6035156 L81.203125,37.4580078 C81.6178406,36.7971972 82.2057254,36.4667969 82.9667969,36.4667969 C83.2128919,36.4667969 83.399739,36.4986976 83.5273438,36.5625 L83.5273438,37.7382812 Z" id="placeholder" fill="#666666" fill-rule="nonzero" opacity="0.562174479"></path>
                        </g>
                        <text id="help-text" font-family="Roboto-Regular, Roboto" font-size="12" font-weight="normal" line-spacing="14" letter-spacing="0.1714286" fill="#555555">
                            <tspan x="0" y="77">Helper text (optional)</tspan>
                        </text>
                    </g>
                    <g id="Group" transform="translate(0.000000, 394.000000)">
                        <g id="Rectangle-16-Copy-4">
                            <use fill="#F6F6F6" fill-rule="evenodd" xlink:href="#path-5"></use>
                            <use fill="black" fill-opacity="1" filter="url(#filter-6)" xlink:href="#path-5"></use>
                        </g>
                        <g id="Submit" transform="translate(314.000000, 18.000000)">
                            <rect id="button-bg" fill="#2C487C" x="0" y="0" width="71" height="36" rx="2"></rect>
                            <text id="SAVE" font-family="Roboto-Medium, Roboto" font-size="14" font-weight="400" letter-spacing="0.5" fill="#FFFFFF">
                                <tspan x="17" y="23">SAVE</tspan>
                            </text>
                        </g>
                        <g id="button-copy" transform="translate(214.000000, 18.000000)">
                            <rect id="button-bg" fill-opacity="0" fill="#009688" x="0" y="0" width="90" height="36" rx="2"></rect>
                            <text id="CANCEL" font-family="Roboto-Medium, Roboto" font-size="14" font-weight="400" letter-spacing="0.5" fill="#3E67B4">
                                <tspan x="16.9868164" y="23">CANCEL</tspan>
                            </text>
                        </g>
                    </g>
                    <g id="Visitors-+-ic_people_24px" transform="translate(24.000000, 18.000000)">
                        <text id="Title-(required)" font-family="Roboto-Regular, Roboto" font-size="18" font-weight="normal" letter-spacing="0.200000003" fill="#333333">
                            <tspan x="49" y="21">Title (required)</tspan>
                        </text>
                        <circle id="Oval" fill="#EAEAEA" cx="16" cy="16" r="16"></circle>
                        <g id="ic_group_add_18px" transform="translate(7.000000, 7.000000)">
                            <path d="M9,8.5 C10.11,8.5 11,7.6 11,6.5 C11,5.4 10.11,4.5 9,4.5 C7.9,4.5 7,5.4 7,6.5 C7,7.6 7.9,8.5 9,8.5 L9,8.5 Z M13,8.5 C14.11,8.5 15,7.6 15,6.5 C15,5.4 14.11,4.5 13,4.5 C12.64,4.5 12.31,4.6 12.02,4.77 C12.32,5.28 12.5,5.87 12.5,6.5 C12.5,7.13 12.32,7.72 12.02,8.23 C12.31,8.4 12.65,8.5 13,8.5 L13,8.5 Z M9,9.7 C7.33,9.7 4,10.53 4,12.2 L4,13.5 L14,13.5 L14,12.2 C14,10.53 10.67,9.7 9,9.7 L9,9.7 Z M5,7.5 L3,7.5 L3,5.5 L2,5.5 L2,7.5 L0,7.5 L0,8.5 L2,8.5 L2,10.5 L3,10.5 L3,8.5 L5,8.5 L5,7.5 L5,7.5 Z M14.23,9.81 C14.98,10.41 15.5,11.19 15.5,12.2 L15.5,13.5 L18,13.5 L18,12.2 C18,10.89 15.93,10.09 14.23,9.81 L14.23,9.81 Z" id="Shape" fill="#555555"></path>
                            <polygon id="Shape" points="0 0 18 0 18 18 0 18"></polygon>
                        </g>
                    </g>
                </g>
                <g id="Text-Modal" transform="translate(0.000000, 38.000000)">
                    <g id="Rectangle-16-Copy-3">
                        <use fill="black" fill-opacity="1" filter="url(#filter-10)" xlink:href="#path-9"></use>
                        <rect stroke="url(#linearGradient-7)" stroke-width="0.5" stroke-linejoin="square" fill="#FFFFFF" fill-rule="evenodd" x="0.25" y="0.25" width="408.5" height="254.5" rx="1"></rect>
                        <rect stroke="url(#linearGradient-8)" stroke-width="0.5" stroke-linejoin="square" x="0.25" y="0.25" width="408.5" height="254.5" rx="1"></rect>
                    </g>
                    <text id="Donec-sed-odio-dui." font-family="Roboto-Regular, Roboto" font-size="14" font-weight="normal" line-spacing="20" letter-spacing="0.200000003" fill="#555555">
                        <tspan x="24" y="100">Donec sed odio dui. Cras mattis consectetur purus sit </tspan>
                        <tspan x="24" y="120">amet fermentum. Cras justo odio, dapibus ac facilisis </tspan>
                        <tspan x="24" y="140">in, egestas eget quam. Cras justo odio, dapibus ac </tspan>
                        <tspan x="24" y="160">facilisis in, egestas eget quam. Lorem ipsum dolor sit </tspan>
                        <tspan x="24" y="180">amet, consectetur adipiscing elit. Lorem ipsum dolor </tspan>
                        <tspan x="24" y="200">sit amet, consectetur adipiscing elit mew reh</tspan>
                        <tspan x="310.040039" y="200">.</tspan>
                    </text>
                    <text id="Title-(required)" font-family="Roboto-Regular, Roboto" font-size="18" font-weight="normal" letter-spacing="0.200000003" fill="#333333">
                        <tspan x="24" y="59">Title (required)</tspan>
                    </text>
                    <text id="Label-(optional)" opacity="0.54" font-family="Roboto-Regular, Roboto" font-size="12" font-weight="normal" letter-spacing="0.2" fill="#000000">
                        <tspan x="24" y="35">Label (optional)</tspan>
                    </text>
                </g>
                <g id="navigation/ic_close" opacity="0.558640253" transform="translate(361.000000, 61.000000)">
                    <g id="ic_close">
                        <polygon id="Bounds" points="0 0 24 0 24 24 0 24"></polygon>
                        <polygon id="Shape" fill="#555555" points="20 5.61142857 18.3885714 4 12 10.3885714 5.61142857 4 4 5.61142857 10.3885714 12 4 18.3885714 5.61142857 20 12 13.6114286 18.3885714 20 20 18.3885714 13.6114286 12"></polygon>
                    </g>
                </g>
                <g id="Group-3" transform="translate(412.000000, 40.000000)" stroke="#FF00C6" stroke-dasharray="5" stroke-linecap="square">
                    <path d="M16,1 L16.5,63.5" id="Line-Copy-11"></path>
                    <path d="M16.75,66.75 L17.5,256.5" id="Line-Copy-11"></path>
                    <path d="M9,-7.25 L9,9.25" id="Line-Copy-11" transform="translate(9.000000, 1.250000) rotate(-90.000000) translate(-9.000000, -1.250000) "></path>
                    <path d="M51.5,-0.75 L51.25,66.25" id="Line-Copy-11" transform="translate(51.000000, 32.750000) rotate(-90.000000) translate(-51.000000, -32.750000) "></path>
                    <path d="M52.625,114 L52.375,181" id="Line-Copy-11" transform="translate(52.125000, 147.500000) rotate(-90.000000) translate(-52.125000, -147.500000) "></path>
                    <path d="M170.625,114 L170.375,181" id="Line-Copy-11" transform="translate(170.125000, 147.500000) rotate(-90.000000) translate(-170.125000, -147.500000) "></path>
                    <path d="M170.625,390 L170.375,457" id="Line-Copy-11" transform="translate(170.125000, 423.500000) rotate(-90.000000) translate(-170.125000, -423.500000) "></path>
                    <path d="M171.625,-1 L171.375,66" id="Line-Copy-11" transform="translate(171.125000, 32.500000) rotate(-90.000000) translate(-171.125000, -32.500000) "></path>
                    <path d="M204,1 L204.5,63.5" id="Line-Copy-11"></path>
                    <path d="M204.75,389.75 L204.506689,462.500011" id="Line-Copy-11"></path>
                    <path d="M204.75,63.75 L204.5,388.5" id="Line-Copy-11"></path>
                    <path d="M214,-7.25 L214,9.25" id="Line-Copy-11" transform="translate(214.000000, 1.250000) rotate(-90.000000) translate(-214.000000, -1.250000) "></path>
                    <path d="M214,54.75 L214,71.25" id="Line-Copy-11" transform="translate(214.000000, 63.250000) rotate(-90.000000) translate(-214.000000, -63.250000) "></path>
                    <path d="M213,383.75 L213,400.25" id="Line-Copy-11" transform="translate(213.000000, 392.250000) rotate(-90.000000) translate(-213.000000, -392.250000) "></path>
                    <path d="M214,453.75 L214,470.25" id="Line-Copy-11" transform="translate(214.000000, 462.250000) rotate(-90.000000) translate(-214.000000, -462.250000) "></path>
                    <path d="M9,55.75 L9,72.25" id="Line-Copy-11" transform="translate(9.000000, 64.250000) rotate(-90.000000) translate(-9.000000, -64.250000) "></path>
                    <path d="M9,243.75 L9,260.25" id="Line-Copy-11" transform="translate(9.000000, 252.250000) rotate(-90.000000) translate(-9.000000, -252.250000) "></path>
                </g>
                <text id="Header" font-family="Roboto-Regular, Roboto" font-size="12" font-weight="normal" letter-spacing="-0.1875" fill="#EA1D94">
                    <tspan x="506" y="77">Header</tspan>
                </text>
                <text id="Text" font-family="Roboto-Regular, Roboto" font-size="12" font-weight="normal" letter-spacing="-0.1875" fill="#EA1D94">
                    <tspan x="0" y="11">Text</tspan>
                </text>
                <text id="Input" font-family="Roboto-Regular, Roboto" font-size="12" font-weight="normal" letter-spacing="-0.1875" fill="#EA1D94">
                    <tspan x="639" y="15">Input</tspan>
                </text>
                <text id="Body" font-family="Roboto-Regular, Roboto" font-size="12" font-weight="normal" letter-spacing="-0.1875" fill="#EA1D94">
                    <tspan x="508" y="192">Body</tspan>
                </text>
                <text id="Footer" font-family="Roboto-Regular, Roboto" font-size="12" font-weight="normal" letter-spacing="-0.1875" fill="#EA1D94">
                    <tspan x="504" y="467">Footer</tspan>
                </text>
            </g>
        </g>
    </g>
</svg>