<?xml version="1.0" standalone="no"?>
<!DOCTYPE svg PUBLIC "-//W3C//DTD SVG 20010904//EN"
 "http://www.w3.org/TR/2001/REC-SVG-20010904/DTD/svg10.dtd">
<svg version="1.0" xmlns="http://www.w3.org/2000/svg"
 width="1952.000000pt" height="1952.000000pt" viewBox="0 0 1952.000000 1952.000000"
 preserveAspectRatio="xMidYMid meet">
<metadata>
Created by potrace 1.14, written by Peter Selinger 2001-2017
</metadata>
<g transform="translate(0.000000,1952.000000) scale(0.100000,-0.100000)"
fill="#000000" stroke="none">
<path d="M749 13596 c-2 -2 -20 -7 -40 -10 -73 -11 -196 -57 -274 -101 -44
-25 -81 -50 -83 -55 -2 -6 -8 -10 -14 -10 -16 0 -143 -130 -182 -187 -63 -92
-101 -180 -143 -332 -10 -36 -15 -6241 -5 -6241 5 0 8 -10 8 -22 0 -23 10 -69
21 -98 3 -8 8 -23 10 -33 6 -31 65 -150 100 -200 151 -216 362 -344 618 -374
67 -8 16974 -8 17050 0 76 8 94 12 174 38 57 19 166 69 196 91 112 82 245 215
245 246 0 6 3 12 8 14 18 8 93 169 108 233 31 127 31 145 29 3231 -1 1688 -4
3080 -7 3094 -49 230 -156 410 -318 533 -30 23 -57 45 -60 48 -9 10 -170 89
-170 84 0 -3 -9 -1 -21 5 -11 6 -29 13 -40 16 -34 7 -59 14 -81 21 -23 8
-17121 17 -17129 9z m3118 -1870 c3 -3 5 -381 5 -841 l1 -835 660 2 661 3 7
27 c4 16 3 30 -1 33 -5 3 -5 19 0 35 5 17 5 30 2 30 -9 0 -6 105 3 120 3 5 1
10 -6 10 -9 0 -9 3 0 14 7 9 8 17 3 20 -6 3 -7 20 -2 41 4 19 5 35 1 35 -9 0
-5 106 5 121 4 8 3 9 -4 5 -9 -5 -9 0 -2 18 5 15 5 28 0 31 -5 3 -5 18 0 35 5
17 5 30 2 30 -9 0 -6 105 3 120 3 5 1 10 -6 10 -9 0 -9 3 0 14 7 9 8 17 3 20
-6 3 -7 20 -2 41 4 19 5 35 1 35 -9 0 -5 106 5 121 4 8 3 9 -4 5 -9 -5 -9 0
-2 18 5 15 5 28 0 31 -5 3 -5 18 0 35 5 17 5 30 2 30 -9 0 -6 105 3 120 3 5 1
10 -6 10 -9 0 -9 3 0 14 7 9 8 17 3 20 -6 3 -7 20 -2 41 4 19 5 35 1 35 -9 0
-5 106 5 121 4 8 3 9 -4 5 -9 -5 -9 0 -2 18 5 15 5 28 0 31 -5 3 -5 18 0 35 5
17 6 30 2 30 -8 0 -7 98 1 106 3 4 1653 7 1944 4 l33 0 0 -190 c-1 -105 2
-195 5 -200 3 -5 1 -11 -5 -15 -6 -4 -7 -12 -1 -23 5 -9 5 -26 1 -38 -5 -12
-7 -24 -5 -26 2 -2 4 -19 5 -38 1 -88 2 -176 1 -190 0 -8 0 -44 0 -80 1 -36 1
-72 0 -80 0 -8 0 -44 0 -80 1 -36 1 -72 0 -80 -3 -64 0 -304 4 -310 3 -5 1
-11 -5 -15 -7 -4 -7 -12 0 -24 5 -10 7 -21 4 -24 -7 -7 -6 -406 1 -417 3 -5 1
-11 -5 -15 -7 -4 -7 -12 0 -24 5 -10 7 -21 4 -24 -7 -7 -6 -406 1 -417 3 -5 1
-11 -5 -15 -6 -4 -7 -12 -1 -23 5 -9 5 -26 1 -38 -5 -12 -7 -24 -5 -26 2 -2 4
-19 5 -38 1 -88 2 -176 1 -190 0 -8 0 -44 0 -80 1 -36 1 -72 0 -80 0 -8 0 -44
0 -80 1 -36 1 -72 0 -80 -3 -64 0 -304 4 -310 3 -5 1 -11 -5 -15 -7 -4 -7 -12
0 -24 5 -10 7 -21 4 -24 -7 -7 -6 -406 1 -417 3 -5 1 -11 -5 -15 -7 -4 -7 -12
0 -24 5 -10 7 -21 3 -25 -3 -3 -5 -33 -4 -66 l2 -60 -38 0 c-21 -1 -465 -1
-987 -1 -710 0 -951 3 -956 11 -4 7 -4 27 0 46 4 19 4 34 -1 34 -5 0 -4 11 1
25 5 14 6 25 2 25 -6 0 -8 48 -2 75 1 6 1 15 0 20 -5 28 -1 195 6 206 4 7 3
14 -2 16 -8 3 -10 48 -4 78 1 6 1 15 0 20 -5 28 -1 195 6 206 4 7 3 14 -2 16
-8 3 -10 48 -4 78 1 6 1 15 0 20 -5 28 -1 195 6 206 4 7 3 14 -2 16 -8 3 -10
48 -4 78 1 6 1 15 0 20 -5 28 -1 195 6 206 4 7 3 14 -2 16 -10 3 -10 116 1
132 3 6 1 11 -6 11 -8 0 -9 3 0 13 6 8 8 17 4 21 -4 3 -7 23 -7 44 l-1 37
-661 2 -661 1 -1 -816 c0 -450 -1 -828 -1 -842 l-1 -25 -987 1 -988 0 -2 1972
-2 1971 42 3 c73 5 1929 0 1934 -6z m6288 4 l60 0 0 -1970 0 -1970 -100 0
c-134 -1 -1778 -1 -1836 0 l-45 0 0 1968 1 1967 40 5 c30 4 1339 4 1880 0z
m4423 -2 c45 -1 82 -5 82 -8 0 -3 19 -5 43 -6 49 -1 150 -12 169 -19 7 -2 24
-6 38 -9 53 -9 175 -39 185 -44 6 -4 15 -7 22 -8 13 -2 80 -23 103 -31 8 -4
17 -7 20 -8 3 -1 18 -7 33 -13 16 -7 30 -12 32 -12 3 0 34 -13 70 -30 36 -16
70 -30 75 -30 6 0 10 -4 10 -10 0 -5 7 -10 15 -10 24 0 321 -181 345 -211 3
-3 12 -10 21 -15 52 -30 283 -249 339 -323 14 -18 37 -47 52 -64 15 -18 28
-35 28 -39 0 -4 6 -13 13 -20 54 -57 176 -285 231 -431 31 -84 76 -242 90
-317 2 -14 5 -25 6 -25 2 0 6 -44 14 -170 5 -60 10 -113 13 -117 2 -5 0 -8 -6
-8 -7 0 -7 -8 -1 -24 5 -13 7 -26 6 -27 -2 -2 -6 -38 -10 -79 -9 -115 -20
-184 -50 -325 -7 -32 -49 -159 -63 -192 -9 -21 -17 -42 -19 -48 -4 -22 -68
-151 -78 -157 -6 -4 -8 -8 -4 -8 17 0 -148 -250 -218 -330 -124 -142 -306
-311 -383 -354 -9 -5 -18 -12 -21 -15 -3 -4 -30 -22 -60 -41 -30 -19 -57 -37
-60 -40 -8 -8 -48 -30 -157 -86 -86 -43 -122 -60 -173 -79 -3 -1 -18 -7 -35
-14 -27 -12 -163 -60 -175 -63 -7 -1 -20 -4 -70 -18 -24 -7 -56 -14 -70 -17
-40 -8 -55 -11 -55 -13 0 -2 -9 -3 -85 -13 -25 -4 -54 -8 -65 -11 -11 -2 -51
-7 -90 -12 -76 -8 -3432 -13 -3444 -4 -4 3 -7 892 -7 1975 l0 1970 51 5 c50 5
3135 4 3293 -2z"/>
<path d="M13190 9759 l0 -1619 278 4 c262 4 316 7 387 23 17 4 32 7 35 8 57
13 78 20 95 31 11 8 26 14 33 14 18 0 128 80 162 117 45 49 76 96 114 171 20
39 37 75 37 79 1 5 6 19 11 33 17 44 58 204 64 250 3 25 8 48 10 51 5 9 31
234 40 344 2 28 6 149 9 270 4 121 8 226 10 233 3 6 1 12 -3 12 -4 0 -7 71 -8
158 -1 138 -9 304 -20 397 -2 17 -6 50 -8 75 -9 87 -36 229 -61 323 -3 9 -7
25 -9 36 -21 94 -93 251 -152 332 -40 55 -117 128 -170 161 -43 27 -162 76
-204 84 -35 6 -87 16 -115 20 -16 3 -144 6 -282 8 l-253 4 0 -1619z"/>
<path d="M19095 13522 c-51 -11 -127 -55 -168 -96 -68 -69 -90 -124 -93 -226
-2 -75 1 -92 25 -145 118 -251 448 -272 595 -37 14 23 24 42 21 42 -3 0 -1 9
5 19 11 21 25 97 21 111 -1 3 -3 26 -5 53 -2 26 -9 54 -16 62 -7 8 -10 15 -6
15 10 0 -45 83 -74 111 -33 32 -109 78 -142 85 -31 8 -138 12 -163 6z m188
-80 c76 -34 143 -117 151 -190 2 -12 5 -24 8 -27 11 -11 -3 -100 -22 -142 -22
-50 -82 -114 -129 -138 -18 -9 -54 -19 -80 -22 -25 -3 -47 -6 -49 -8 -11 -11
-152 42 -152 57 0 5 -4 7 -8 4 -5 -3 -15 6 -22 19 -7 14 -17 25 -21 25 -22 0
-67 132 -63 180 2 20 10 67 13 78 1 1 1 5 2 10 4 34 103 147 121 136 4 -3 8
-1 8 5 0 9 27 22 58 27 8 1 16 5 19 8 12 12 123 -3 166 -22z"/>
<path d="M19042 13292 c2 -56 1 -102 -2 -102 -6 0 -3 -168 4 -185 2 -7 15 -12
28 -11 22 1 23 5 26 76 1 41 4 80 6 85 4 15 66 14 66 -2 0 -7 4 -13 9 -13 5 0
11 -8 14 -17 8 -22 50 -98 66 -117 11 -13 46 -14 58 -2 3 2 -18 38 -46 80 -47
70 -50 76 -32 85 10 6 20 8 23 6 2 -3 17 8 32 24 34 35 40 83 18 131 -24 50
-59 63 -175 64 l-98 1 3 -103z m213 22 c15 -21 10 -63 -9 -82 -7 -7 -42 -14
-79 -16 l-66 -3 -3 31 c-2 17 -1 45 1 63 l3 32 70 -4 c53 -3 73 -8 83 -21z"/>
</g>
</svg>
