<svg width="322" height="26" viewBox="0 0 322 26" fill="none" xmlns="http://www.w3.org/2000/svg">
<g clip-path="url(#clip0_214_94)">
<path d="M59.0481 1.27328C59.0481 1.04513 59.1384 0.82632 59.2992 0.664992C59.46 0.503665 59.678 0.413032 59.9054 0.413032C60.1327 0.413032 60.3508 0.503665 60.5115 0.664992C60.6723 0.82632 60.7626 1.04513 60.7626 1.27328C60.7626 1.50143 60.6723 1.72024 60.5115 1.88157C60.3508 2.0429 60.1327 2.13353 59.9054 2.13353C59.678 2.13353 59.46 2.0429 59.2992 1.88157C59.1384 1.72024 59.0481 1.50143 59.0481 1.27328ZM59.9085 2.33539C60.1155 2.33172 60.3168 2.26684 60.4873 2.14889C60.6577 2.03093 60.7897 1.86513 60.8667 1.67225C60.9436 1.47938 60.9622 1.26799 60.92 1.06458C60.8779 0.861163 60.7768 0.674753 60.6296 0.528693C60.4823 0.382633 60.2954 0.283414 60.0922 0.243461C59.889 0.203508 59.6786 0.224596 59.4873 0.304086C59.296 0.383575 59.1323 0.517932 59.0168 0.690332C58.9012 0.862732 58.8389 1.06551 58.8377 1.27328C58.8368 1.41405 58.864 1.55356 58.9177 1.68362C58.9714 1.81368 59.0504 1.93166 59.1502 2.03062C59.2499 2.12958 59.3684 2.20752 59.4986 2.25986C59.6289 2.3122 59.7682 2.33788 59.9085 2.33539ZM59.6856 1.36024H59.8961L60.1932 1.88819H60.3974L60.0508 1.34781C60.097 1.35171 60.1435 1.34533 60.187 1.32913C60.2305 1.31294 60.2699 1.28732 60.3024 1.25412C60.3349 1.22091 60.3597 1.18092 60.3751 1.137C60.3904 1.09307 60.3959 1.04629 60.3912 0.999988C60.393 0.945979 60.3821 0.892311 60.3596 0.843241C60.337 0.79417 60.3034 0.751047 60.2613 0.717291C60.2193 0.683534 60.17 0.660073 60.1173 0.648768C60.0647 0.637463 60.0101 0.638625 59.958 0.652162H59.4999V1.8944H59.6856V1.36024ZM59.6856 1.20496V0.826075H59.9394C60.0694 0.826075 60.2056 0.826075 60.2056 1.0062C60.2056 1.18632 60.0694 1.20496 59.9085 1.20496H59.6856Z" fill="#00539B"/>
<path d="M55.3715 2.28384e-08H2.68625C1.97381 2.28385e-08 1.29056 0.284005 0.786785 0.789538C0.283015 1.29507 0 1.98072 0 2.69565V21.3292C0.0113709 22.0366 0.299398 22.7111 0.801941 23.2073C1.30448 23.7034 1.98126 23.9815 2.68625 23.9814H55.3715C55.7242 23.9814 56.0735 23.9116 56.3994 23.7762C56.7254 23.6407 57.0215 23.4421 57.2709 23.1918C57.5204 22.9415 57.7182 22.6444 57.8532 22.3173C57.9882 21.9902 58.0577 21.6397 58.0577 21.2857V2.65217C58.0463 1.9448 57.7583 1.27027 57.2558 0.774105C56.7532 0.277937 56.0765 -9.20046e-05 55.3715 2.28384e-08ZM22.437 18.1615H16.2475V12.913H12.1005V18.1677H5.91099V5.83851H12.1005V11.0932H16.2475V5.83851H22.437V18.1615ZM31.9194 18.1615H25.7298V5.83851H31.9194V18.1615ZM45.2021 18.205H35.107V5.83851H45.2021C48.7425 5.83851 51.9487 8.53416 51.9425 12.0497C51.9363 15.5652 48.7425 18.205 45.2021 18.205ZM41.216 6.95031V17.0559C43.7599 17.0559 45.2206 17.4721 45.2206 12.0124C45.2206 6.5528 43.4814 6.95031 41.216 6.95031Z" fill="#00539B"/>
</g>
<line x1="73.4729" y1="2.18557e-08" x2="73.4729" y2="24" stroke="#666666"/>
<path d="M99.7737 20H98.3206V11.8203H88.5706V20H87.1292V2.9375H88.5706V10.6016H98.3206V2.9375H99.7737V20ZM105.879 20H104.438V2.9375H105.879V20ZM110.52 20V2.9375H115.289C116.688 2.9375 117.942 3.25781 119.051 3.89844C120.16 4.53125 121.024 5.44141 121.641 6.62891C122.266 7.81641 122.578 9.16797 122.578 10.6836V12.2539C122.578 13.7773 122.27 15.1289 121.653 16.3086C121.035 17.4883 120.164 18.3984 119.039 19.0391C117.922 19.6797 116.637 20 115.184 20H110.52ZM111.961 4.16797V18.7812H115.196C116.992 18.7812 118.434 18.1875 119.52 17C120.606 15.8047 121.149 14.1914 121.149 12.1602V10.6602C121.149 8.69922 120.614 7.12891 119.543 5.94922C118.473 4.76953 117.063 4.17578 115.313 4.16797H111.961ZM132.082 20V2.9375H136.852C138.25 2.9375 139.504 3.25781 140.614 3.89844C141.723 4.53125 142.586 5.44141 143.203 6.62891C143.828 7.81641 144.141 9.16797 144.141 10.6836V12.2539C144.141 13.7773 143.832 15.1289 143.215 16.3086C142.598 17.4883 141.727 18.3984 140.602 19.0391C139.485 19.6797 138.199 20 136.746 20H132.082ZM133.524 4.16797V18.7812H136.758C138.555 18.7812 139.996 18.1875 141.082 17C142.168 15.8047 142.711 14.1914 142.711 12.1602V10.6602C142.711 8.69922 142.176 7.12891 141.106 5.94922C140.035 4.76953 138.625 4.17578 136.875 4.16797H133.524ZM152.391 20.2344C151.313 20.2344 150.336 19.9688 149.461 19.4375C148.594 18.9062 147.918 18.168 147.434 17.2227C146.949 16.2695 146.707 15.2031 146.707 14.0234V13.5195C146.707 12.3008 146.942 11.2031 147.41 10.2266C147.887 9.25 148.547 8.48438 149.391 7.92969C150.235 7.36719 151.149 7.08594 152.133 7.08594C153.672 7.08594 154.891 7.61328 155.789 8.66797C156.696 9.71484 157.149 11.1484 157.149 12.9688V13.7539H148.102V14.0234C148.102 15.4609 148.512 16.6602 149.332 17.6211C150.16 18.5742 151.199 19.0508 152.449 19.0508C153.199 19.0508 153.86 18.9141 154.43 18.6406C155.008 18.3672 155.531 17.9297 156 17.3281L156.879 17.9961C155.848 19.4883 154.352 20.2344 152.391 20.2344ZM152.133 8.28125C151.078 8.28125 150.188 8.66797 149.461 9.44141C148.742 10.2148 148.305 11.2539 148.149 12.5586H155.754V12.4062C155.715 11.1875 155.367 10.1953 154.711 9.42969C154.055 8.66406 153.196 8.28125 152.133 8.28125ZM167.473 16.7773C167.473 16.082 167.192 15.5234 166.629 15.1016C166.074 14.6797 165.235 14.3516 164.11 14.1172C162.985 13.875 162.11 13.6016 161.485 13.2969C160.867 12.9844 160.406 12.6055 160.102 12.1602C159.805 11.7148 159.656 11.1758 159.656 10.543C159.656 9.54297 160.074 8.71875 160.91 8.07031C161.746 7.41406 162.817 7.08594 164.121 7.08594C165.535 7.08594 166.668 7.4375 167.52 8.14062C168.379 8.83594 168.809 9.74609 168.809 10.8711H167.403C167.403 10.1289 167.09 9.51172 166.465 9.01953C165.848 8.52734 165.067 8.28125 164.121 8.28125C163.199 8.28125 162.457 8.48828 161.895 8.90234C161.34 9.30859 161.063 9.83984 161.063 10.4961C161.063 11.1289 161.293 11.6211 161.754 11.9727C162.223 12.3164 163.071 12.6328 164.297 12.9219C165.531 13.2109 166.453 13.5195 167.063 13.8477C167.68 14.1758 168.137 14.5703 168.434 15.0312C168.731 15.4922 168.879 16.0508 168.879 16.707C168.879 17.7773 168.446 18.6328 167.578 19.2734C166.719 19.9141 165.594 20.2344 164.203 20.2344C162.727 20.2344 161.528 19.8789 160.606 19.168C159.692 18.4492 159.235 17.543 159.235 16.4492H160.641C160.696 17.2695 161.039 17.9102 161.672 18.3711C162.313 18.8242 163.156 19.0508 164.203 19.0508C165.18 19.0508 165.969 18.8359 166.571 18.4062C167.172 17.9766 167.473 17.4336 167.473 16.7773ZM173.614 20H172.207V7.32031H173.614V20ZM171.961 3.65234C171.961 3.38672 172.047 3.16406 172.219 2.98438C172.391 2.79688 172.625 2.70312 172.922 2.70312C173.219 2.70312 173.453 2.79688 173.625 2.98438C173.805 3.16406 173.895 3.38672 173.895 3.65234C173.895 3.91797 173.805 4.14063 173.625 4.32031C173.453 4.5 173.219 4.58984 172.922 4.58984C172.625 4.58984 172.391 4.5 172.219 4.32031C172.047 4.14063 171.961 3.91797 171.961 3.65234ZM176.871 13.543C176.871 11.5586 177.309 9.98828 178.184 8.83203C179.067 7.66797 180.262 7.08594 181.77 7.08594C183.496 7.08594 184.809 7.77344 185.707 9.14844L185.778 7.32031H187.09V19.7422C187.09 21.375 186.633 22.668 185.719 23.6211C184.805 24.5742 183.567 25.0508 182.004 25.0508C181.121 25.0508 180.278 24.8516 179.473 24.4531C178.676 24.0625 178.047 23.5391 177.586 22.8828L178.371 22.0391C179.364 23.2578 180.543 23.8672 181.91 23.8672C183.082 23.8672 183.996 23.5195 184.653 22.8242C185.309 22.1367 185.649 21.1797 185.672 19.9531V18.3594C184.774 19.6094 183.465 20.2344 181.746 20.2344C180.278 20.2344 179.098 19.6484 178.207 18.4766C177.317 17.3047 176.871 15.7227 176.871 13.7305V13.543ZM178.289 13.7891C178.289 15.4062 178.614 16.6836 179.262 17.6211C179.91 18.5508 180.824 19.0156 182.004 19.0156C183.731 19.0156 184.953 18.2422 185.672 16.6953V10.8008C185.344 9.98828 184.871 9.37109 184.254 8.94922C183.637 8.51953 182.895 8.30469 182.028 8.30469C180.848 8.30469 179.93 8.76953 179.274 9.69922C178.617 10.6211 178.289 11.9844 178.289 13.7891ZM192.082 7.32031L192.129 9.48828C192.606 8.70703 193.199 8.11328 193.91 7.70703C194.621 7.29297 195.406 7.08594 196.266 7.08594C197.625 7.08594 198.637 7.46875 199.301 8.23438C199.965 9 200.301 10.1484 200.309 11.6797V20H198.914V11.668C198.906 10.5352 198.664 9.69141 198.188 9.13672C197.719 8.58203 196.965 8.30469 195.926 8.30469C195.059 8.30469 194.289 8.57812 193.617 9.125C192.953 9.66406 192.461 10.3945 192.141 11.3164V20H190.746V7.32031H192.082ZM219.762 15.8047C219.762 14.8594 219.43 14.1133 218.766 13.5664C218.102 13.0117 216.887 12.4883 215.121 11.9961C213.356 11.4961 212.067 10.9531 211.254 10.3672C210.098 9.53906 209.52 8.45312 209.52 7.10938C209.52 5.80469 210.055 4.74609 211.125 3.93359C212.203 3.11328 213.578 2.70312 215.25 2.70312C216.383 2.70312 217.395 2.92188 218.285 3.35938C219.184 3.79687 219.879 4.40625 220.371 5.1875C220.864 5.96875 221.11 6.83984 221.11 7.80078H219.656C219.656 6.63672 219.258 5.70312 218.461 5C217.664 4.28906 216.594 3.93359 215.25 3.93359C213.946 3.93359 212.906 4.22656 212.133 4.8125C211.36 5.39062 210.973 6.14844 210.973 7.08594C210.973 7.95312 211.321 8.66016 212.016 9.20703C212.711 9.75391 213.824 10.2383 215.356 10.6602C216.887 11.0742 218.047 11.5078 218.836 11.9609C219.625 12.4062 220.219 12.9414 220.617 13.5664C221.016 14.1914 221.215 14.9297 221.215 15.7812C221.215 17.125 220.676 18.2031 219.598 19.0156C218.528 19.8281 217.114 20.2344 215.356 20.2344C214.153 20.2344 213.047 20.0195 212.039 19.5898C211.039 19.1602 210.278 18.5586 209.754 17.7852C209.239 17.0117 208.981 16.125 208.981 15.125H210.422C210.422 16.3281 210.871 17.2773 211.77 17.9727C212.668 18.668 213.864 19.0156 215.356 19.0156C216.684 19.0156 217.75 18.7227 218.555 18.1367C219.36 17.5508 219.762 16.7734 219.762 15.8047ZM228.024 17.9844L231.727 7.32031H233.239L227.824 22.1562L227.543 22.8125C226.848 24.3516 225.774 25.1211 224.321 25.1211C223.985 25.1211 223.625 25.0664 223.242 24.957L223.231 23.7969L223.957 23.8672C224.645 23.8672 225.199 23.6953 225.621 23.3516C226.051 23.0156 226.414 22.4336 226.711 21.6055L227.332 19.8945L222.551 7.32031H224.086L228.024 17.9844ZM243.012 16.7773C243.012 16.082 242.731 15.5234 242.168 15.1016C241.614 14.6797 240.774 14.3516 239.649 14.1172C238.524 13.875 237.649 13.6016 237.024 13.2969C236.406 12.9844 235.946 12.6055 235.641 12.1602C235.344 11.7148 235.196 11.1758 235.196 10.543C235.196 9.54297 235.614 8.71875 236.449 8.07031C237.285 7.41406 238.356 7.08594 239.66 7.08594C241.074 7.08594 242.207 7.4375 243.059 8.14062C243.918 8.83594 244.348 9.74609 244.348 10.8711H242.942C242.942 10.1289 242.629 9.51172 242.004 9.01953C241.387 8.52734 240.606 8.28125 239.66 8.28125C238.739 8.28125 237.996 8.48828 237.434 8.90234C236.879 9.30859 236.602 9.83984 236.602 10.4961C236.602 11.1289 236.832 11.6211 237.293 11.9727C237.762 12.3164 238.61 12.6328 239.836 12.9219C241.071 13.2109 241.992 13.5195 242.602 13.8477C243.219 14.1758 243.676 14.5703 243.973 15.0312C244.27 15.4922 244.418 16.0508 244.418 16.707C244.418 17.7773 243.985 18.6328 243.117 19.2734C242.258 19.9141 241.133 20.2344 239.742 20.2344C238.266 20.2344 237.067 19.8789 236.145 19.168C235.231 18.4492 234.774 17.543 234.774 16.4492H236.18C236.235 17.2695 236.578 17.9102 237.211 18.3711C237.852 18.8242 238.696 19.0508 239.742 19.0508C240.719 19.0508 241.508 18.8359 242.11 18.4062C242.711 17.9766 243.012 17.4336 243.012 16.7773ZM249.762 4.07422V7.32031H252.387V8.46875H249.762V16.918C249.762 17.6211 249.887 18.1445 250.137 18.4883C250.395 18.832 250.821 19.0039 251.414 19.0039C251.649 19.0039 252.028 18.9648 252.551 18.8867L252.61 20.0352C252.242 20.168 251.742 20.2344 251.11 20.2344C250.149 20.2344 249.449 19.957 249.012 19.4023C248.574 18.8398 248.356 18.0156 248.356 16.9297V8.46875H246.024V7.32031H248.356V4.07422H249.762ZM260.203 20.2344C259.125 20.2344 258.149 19.9688 257.274 19.4375C256.406 18.9062 255.731 18.168 255.246 17.2227C254.762 16.2695 254.52 15.2031 254.52 14.0234V13.5195C254.52 12.3008 254.754 11.2031 255.223 10.2266C255.699 9.25 256.36 8.48438 257.203 7.92969C258.047 7.36719 258.961 7.08594 259.946 7.08594C261.485 7.08594 262.703 7.61328 263.602 8.66797C264.508 9.71484 264.961 11.1484 264.961 12.9688V13.7539H255.914V14.0234C255.914 15.4609 256.324 16.6602 257.145 17.6211C257.973 18.5742 259.012 19.0508 260.262 19.0508C261.012 19.0508 261.672 18.9141 262.242 18.6406C262.821 18.3672 263.344 17.9297 263.813 17.3281L264.692 17.9961C263.66 19.4883 262.164 20.2344 260.203 20.2344ZM259.946 8.28125C258.891 8.28125 258 8.66797 257.274 9.44141C256.555 10.2148 256.117 11.2539 255.961 12.5586H263.567V12.4062C263.528 11.1875 263.18 10.1953 262.524 9.42969C261.867 8.66406 261.008 8.28125 259.946 8.28125ZM268.969 7.32031L269.016 9.38281C269.485 8.61719 270.071 8.04297 270.774 7.66016C271.477 7.27734 272.258 7.08594 273.117 7.08594C275.117 7.08594 276.387 7.90625 276.926 9.54688C277.379 8.75781 277.985 8.15234 278.742 7.73047C279.5 7.30078 280.336 7.08594 281.25 7.08594C283.969 7.08594 285.356 8.57031 285.41 11.5391V20H284.004V11.6445C283.996 10.5117 283.75 9.67188 283.266 9.125C282.789 8.57812 282.008 8.30469 280.922 8.30469C279.914 8.32031 279.063 8.64844 278.367 9.28906C277.672 9.92188 277.285 10.6953 277.207 11.6094V20H275.801V11.5391C275.793 10.4531 275.535 9.64453 275.028 9.11328C274.528 8.57422 273.754 8.30469 272.707 8.30469C271.824 8.30469 271.067 8.55859 270.434 9.06641C269.801 9.56641 269.332 10.3125 269.028 11.3047V20H267.621V7.32031H268.969Z" fill="#666666"/>
<defs>
<clipPath id="clip0_214_94">
<rect width="60.973" height="24" fill="white"/>
</clipPath>
</defs>
</svg>
